<?xml version="1.0" encoding="UTF-8"?>
<!DOCTYPE svg PUBLIC "-//W3C//DTD SVG 1.1//EN" "http://www.w3.org/Graphics/SVG/1.1/DTD/svg11.dtd">
<!-- Creator: CorelDRAW 2021.5 (Evaluation Version) -->
<svg xmlns="http://www.w3.org/2000/svg" xml:space="preserve" width="600px" height="126px" version="1.1" style="shape-rendering:geometricPrecision; text-rendering:geometricPrecision; image-rendering:optimizeQuality; fill-rule:evenodd; clip-rule:evenodd"
viewBox="0 0 600 126"
 xmlns:xlink="http://www.w3.org/1999/xlink"
 xmlns:xodm="http://www.corel.com/coreldraw/odm/2003">
 <defs>
  <style type="text/css">
   <![CDATA[
    .fil0 {fill:white;fill-rule:nonzero}
    .fil1 {fill:#ffffff;fill-rule:nonzero}
   ]]>
  </style>
 </defs>
 <g id="Layer_x0020_1">
  <metadata id="CorelCorpID_0Corel-Layer"/>
  <g id="_105553186039264">
   <path class="fil0" d="M78.21 88.83l-25.64 -58.32 -25.64 58.32 51.28 0zm-55.39 9.37l-10.55 23.74 -10.84 0 46.01 -102.57 10.26 0 46.01 102.57 -10.84 0 -10.56 -23.74 -59.49 0z"/>
   <path class="fil0" d="M144.8 123.41c-20.51,0 -37.51,-13.77 -37.51,-37.51 0,-23.75 16.56,-37.81 37.51,-37.81 9.82,0 18.17,3.23 25.65,10.7l-6.45 6.3c-5.42,-5.28 -12.02,-7.77 -19.05,-7.77 -15.39,0 -27.84,10.7 -27.84,28.58 0,18.31 12.6,28.13 27.69,28.13 7.48,0 14.65,-2.79 20.08,-8.21l6.74 6.6c-7.62,7.47 -16.85,10.99 -26.82,10.99z"/>
   <path class="fil0" d="M192.27 90.14c0,15.24 8.21,23.59 22.86,23.59 13.92,0 23.74,-10.84 23.74,-24.76l0 -39.41 9.67 0 0 72.38 -9.09 0 -0.29 -12.16c-6.01,9.38 -15.53,13.63 -25.64,13.63 -18.76,0 -31.06,-12.75 -31.06,-33.12l0 -40.73 9.81 0 0 40.58z"/>
   <path class="fil0" d="M319.72 79.59c0,-12.74 -8.5,-22.56 -21.25,-22.56 -12.75,0 -21.25,9.82 -21.25,22.56l0 42.35 -9.82 0 0 -72.38 9.23 0 0.45 10.84c4.68,-9.23 13.62,-12.31 22.41,-12.31 10.55,0 21.1,3.96 25.5,16.41 4.84,-11.57 15.38,-16.41 26.08,-16.41 18.32,0 30.48,11.87 30.48,31.21l0 42.64 -9.82 0 0 -42.64c0,-12.9 -8.06,-22.27 -20.8,-22.27 -12.75,0 -21.4,9.82 -21.4,22.56l0 42.35 -9.81 0 0 -42.35z"/>
   <path class="fil0" d="M432.72 56.73c-14.65,0 -25.2,9.09 -27.11,24.92l53.78 0c-0.44,-15.83 -12.01,-24.92 -26.67,-24.92zm0.29 57.3c8.5,0 19.49,-3.37 24.48,-9.97l6.59 5.87c-7.18,8.94 -19.49,13.48 -31.07,13.48 -21.53,0 -37.51,-14.66 -37.51,-37.66 0,-21.54 15.54,-37.66 37.08,-37.66 21.54,0 38.82,13.48 36.04,41.91l-63.01 0c1.18,15.24 13.05,24.03 27.4,24.03z"/>
   <path class="fil0" d="M539.8 81.35c0,-15.68 -8.94,-24.03 -23.59,-24.03 -14.07,0 -23.74,11.43 -23.74,25.21l0 39.41 -9.82 0 0 -72.38 9.38 0 0.29 12.16c5.86,-9.82 16.12,-13.63 25.65,-13.63 19.78,0 31.79,13.04 31.79,33.12l0 40.73 -9.96 0 0 -40.59z"/>
   <path class="fil1" d="M561.75 19.42l21.83 21.83 0 -21.83 -21.83 0zm33.25 49.41l-60.83 -60.83 60.83 0 0 60.83z"/>
  </g>
 </g>
</svg>
