<?xml version="1.0" encoding="UTF-8"?>
<!DOCTYPE svg PUBLIC "-//W3C//DTD SVG 1.1//EN" "http://www.w3.org/Graphics/SVG/1.1/DTD/svg11.dtd">
<!-- Creator: CorelDRAW 2021.5 (Evaluation Version) -->
<svg xmlns="http://www.w3.org/2000/svg" xml:space="preserve" width="1024px" height="1100px" version="1.1" style="shape-rendering:geometricPrecision; text-rendering:geometricPrecision; image-rendering:optimizeQuality; fill-rule:evenodd; clip-rule:evenodd"
viewBox="0 0 1024 1100"
 xmlns:xlink="http://www.w3.org/1999/xlink"
 xmlns:xodm="http://www.corel.com/coreldraw/odm/2003">
 <defs>
  <style type="text/css">
   <![CDATA[
    .fil33 {fill:white;fill-rule:nonzero}
    .fil15 {fill:#F8B466;fill-rule:nonzero}
    .fil30 {fill:#EB5F33;fill-rule:nonzero}
    .fil14 {fill:#E9861E;fill-rule:nonzero}
    .fil37 {fill:#F3FAFC;fill-rule:nonzero}
    .fil13 {fill:#F3F3F2;fill-rule:nonzero}
    .fil31 {fill:#E6B089;fill-rule:nonzero}
    .fil29 {fill:#DBDBDB;fill-rule:nonzero}
    .fil39 {fill:#CD9774;fill-rule:nonzero}
    .fil2 {fill:#BB4A2C;fill-rule:nonzero}
    .fil9 {fill:#C18A3A;fill-rule:nonzero}
    .fil3 {fill:#C6C6C6;fill-rule:nonzero}
    .fil1 {fill:#833A25;fill-rule:nonzero}
    .fil8 {fill:#8B622E;fill-rule:nonzero}
    .fil12 {fill:#B0B1B2;fill-rule:nonzero}
    .fil11 {fill:#9E9E9F;fill-rule:nonzero}
    .fil4 {fill:#898B8C;fill-rule:nonzero}
    .fil0 {fill:#858686;fill-rule:nonzero}
    .fil10 {fill:#707171;fill-rule:nonzero}
    .fil34 {fill:#392B25;fill-rule:nonzero}
    .fil35 {fill:#3C3C3C;fill-rule:nonzero}
    .fil36 {fill:#2A2A2A;fill-rule:nonzero}
    .fil7 {fill:#333947;fill-rule:nonzero}
    .fil22 {fill:#2E303B;fill-rule:nonzero}
    .fil23 {fill:#2D303B;fill-rule:nonzero}
    .fil17 {fill:#2A2C34;fill-rule:nonzero}
    .fil5 {fill:#2D303B;fill-rule:nonzero}
    .fil24 {fill:#2D303A;fill-rule:nonzero}
    .fil26 {fill:#2C2E38;fill-rule:nonzero}
    .fil18 {fill:#292B33;fill-rule:nonzero}
    .fil20 {fill:#282A30;fill-rule:nonzero}
    .fil25 {fill:#2B2F38;fill-rule:nonzero}
    .fil16 {fill:#292D35;fill-rule:nonzero}
    .fil19 {fill:#282B32;fill-rule:nonzero}
    .fil27 {fill:#2B2D36;fill-rule:nonzero}
    .fil28 {fill:#2A2C35;fill-rule:nonzero}
    .fil6 {fill:#272930;fill-rule:nonzero}
    .fil21 {fill:#26292F;fill-rule:nonzero}
    .fil32 {fill:#282B36;fill-rule:nonzero}
    .fil38 {fill:#282C38;fill-rule:nonzero}
   ]]>
  </style>
 </defs>
 <g id="Layer_x0020_1">
  <metadata id="CorelCorpID_0Corel-Layer"/>
  <polygon class="fil0" points="676.45,711.15 396.85,549.69 714.01,365.4 993.61,526.82 "/>
  <polygon class="fil1" points="736.44,351.15 736.41,361.86 711.76,347.61 711.79,336.9 "/>
  <polygon class="fil2" points="711.79,336.9 711.76,347.61 687.26,361.86 687.29,351.15 "/>
  <polygon class="fil3" points="581.7,412.53 581.67,423.19 558.01,436.94 558.04,426.28 "/>
  <polygon class="fil4" points="609.99,428.86 609.96,439.53 581.67,423.19 581.7,412.53 "/>
  <polygon class="fil5" points="609.99,428.86 609.96,439.53 586.3,453.28 586.33,442.61 "/>
  <polygon class="fil6" points="586.33,442.61 586.3,453.28 558.01,436.94 558.04,426.28 "/>
  <polygon class="fil3" points="551.01,430.36 550.98,441.03 527.32,454.78 527.35,444.11 "/>
  <polygon class="fil3" points="616.87,432.82 616.85,443.53 593.18,457.28 593.21,446.57 "/>
  <polygon class="fil4" points="579.3,446.69 579.27,457.36 550.98,441.03 551.01,430.36 "/>
  <polygon class="fil3" points="682.72,435.28 682.68,445.98 659.02,459.73 659.05,449.03 "/>
  <polygon class="fil4" points="645.15,449.15 645.12,459.82 616.85,443.53 616.87,432.82 "/>
  <polygon class="fil4" points="711,451.61 710.97,462.32 682.68,445.98 682.72,435.28 "/>
  <polygon class="fil3" points="771.38,455.32 771.35,466.03 761.81,471.57 761.84,460.86 "/>
  <polygon class="fil6" points="555.64,460.44 555.61,471.11 527.32,454.78 527.35,444.11 "/>
  <polygon class="fil5" points="579.3,446.69 579.27,457.36 555.61,471.11 555.64,460.44 "/>
  <polygon class="fil7" points="579.3,446.69 555.64,460.44 527.35,444.11 551.01,430.36 "/>
  <polygon class="fil3" points="520.32,448.19 520.29,458.86 496.64,472.61 496.67,461.94 "/>
  <polygon class="fil5" points="645.15,449.15 645.12,459.82 621.46,473.57 621.49,462.9 "/>
  <polygon class="fil6" points="621.49,462.9 621.46,473.57 593.18,457.28 593.21,446.57 "/>
  <polygon class="fil3" points="586.18,450.65 586.15,461.36 562.49,475.11 562.52,464.4 "/>
  <polygon class="fil4" points="548.61,464.53 548.58,475.19 520.29,458.86 520.32,448.19 "/>
  <polygon class="fil6" points="687.34,465.36 687.31,476.07 659.02,459.73 659.05,449.03 "/>
  <polygon class="fil5" points="711,451.61 710.97,462.32 687.31,476.07 687.34,465.36 "/>
  <polygon class="fil3" points="652.04,453.11 652,463.82 628.34,477.57 628.38,466.86 "/>
  <polygon class="fil4" points="614.46,466.98 614.43,477.65 586.15,461.36 586.18,450.65 "/>
  <polygon class="fil3" points="717.89,455.61 717.86,466.28 694.2,480.03 694.23,469.36 "/>
  <polygon class="fil4" points="680.32,469.44 680.3,480.15 652,463.82 652.04,453.11 "/>
  <polygon class="fil4" points="746.16,471.94 746.13,482.61 717.86,466.28 717.89,455.61 "/>
  <polygon class="fil7" points="548.61,464.53 524.96,478.28 496.67,461.94 520.32,448.19 "/>
  <polygon class="fil6" points="524.96,478.28 524.93,488.94 496.64,472.61 496.67,461.94 "/>
  <polygon class="fil5" points="548.61,464.53 548.58,475.19 524.93,488.94 524.96,478.28 "/>
  <polygon class="fil3" points="489.64,466.03 489.61,476.69 465.95,490.44 465.98,479.78 "/>
  <polygon class="fil7" points="614.46,466.98 590.8,480.74 562.52,464.4 586.18,450.65 "/>
  <polygon class="fil5" points="614.46,466.98 614.43,477.65 590.77,491.4 590.8,480.74 "/>
  <polygon class="fil6" points="590.8,480.74 590.77,491.4 562.49,475.11 562.52,464.4 "/>
  <polygon class="fil3" points="555.49,468.48 555.46,479.19 531.81,492.94 531.85,482.24 "/>
  <polygon class="fil4" points="517.93,482.36 517.9,493.03 489.61,476.69 489.64,466.03 "/>
  <polygon class="fil6" points="656.66,483.19 656.63,493.9 628.34,477.57 628.38,466.86 "/>
  <polygon class="fil5" points="680.32,469.44 680.3,480.15 656.63,493.9 656.66,483.19 "/>
  <polygon class="fil3" points="621.35,470.94 621.31,481.65 597.65,495.4 597.68,484.69 "/>
  <polygon class="fil4" points="583.77,484.82 583.74,495.53 555.46,479.19 555.49,468.48 "/>
  <polygon class="fil5" points="746.16,471.94 746.13,482.61 722.47,496.36 722.5,485.69 "/>
  <polygon class="fil6" points="722.5,485.69 722.47,496.36 694.2,480.03 694.23,469.36 "/>
  <polygon class="fil3" points="687.21,473.44 687.18,484.11 663.52,497.86 663.55,487.19 "/>
  <polygon class="fil4" points="649.63,487.28 649.6,497.99 621.31,481.65 621.35,470.94 "/>
  <polygon class="fil3" points="753.05,475.9 753.02,486.57 729.35,500.32 729.39,489.65 "/>
  <polygon class="fil4" points="715.48,489.74 715.45,500.44 687.18,484.11 687.21,473.44 "/>
  <polygon class="fil4" points="781.33,492.23 781.29,502.9 753.02,486.57 753.05,475.9 "/>
  <polygon class="fil6" points="494.27,496.11 494.24,506.78 465.95,490.44 465.98,479.78 "/>
  <polygon class="fil5" points="517.93,482.36 517.9,493.03 494.24,506.78 494.27,496.11 "/>
  <polygon class="fil8" points="560.12,498.57 560.09,509.24 531.81,492.94 531.85,482.24 "/>
  <polygon class="fil9" points="583.77,484.82 583.74,495.53 560.09,509.24 560.12,498.57 "/>
  <polygon class="fil3" points="524.82,486.32 524.78,497.03 501.12,510.78 501.15,500.07 "/>
  <polygon class="fil5" points="649.63,487.28 649.6,497.99 625.94,511.73 625.97,501.03 "/>
  <polygon class="fil6" points="625.97,501.03 625.94,511.73 597.65,495.4 597.68,484.69 "/>
  <polygon class="fil3" points="590.65,488.78 590.62,499.49 566.98,513.23 567,502.53 "/>
  <polygon class="fil4" points="553.09,502.65 553.06,513.32 524.78,497.03 524.82,486.32 "/>
  <polygon class="fil1" points="691.82,503.53 691.79,514.19 663.52,497.86 663.55,487.19 "/>
  <polygon class="fil2" points="715.48,489.74 715.45,500.44 691.79,514.19 691.82,503.53 "/>
  <polygon class="fil3" points="656.52,491.28 656.49,501.94 632.83,515.69 632.85,505.03 "/>
  <polygon class="fil4" points="618.94,505.11 618.91,515.82 590.62,499.49 590.65,488.78 "/>
  <polygon class="fil5" points="781.33,492.23 781.29,502.9 757.63,516.65 757.66,505.98 "/>
  <polygon class="fil6" points="757.66,505.98 757.63,516.65 729.35,500.32 729.39,489.65 "/>
  <polygon class="fil3" points="722.37,493.73 722.34,504.4 698.68,518.15 698.71,507.48 "/>
  <polygon class="fil4" points="684.79,507.61 684.76,518.28 656.49,501.94 656.52,491.28 "/>
  <polygon class="fil3" points="788.21,496.19 788.18,506.9 764.52,520.65 764.55,509.94 "/>
  <polygon class="fil4" points="750.65,510.07 750.61,520.73 722.34,504.4 722.37,493.73 "/>
  <polygon class="fil4" points="816.5,512.53 816.47,523.23 788.18,506.9 788.21,496.19 "/>
  <polygon class="fil4" points="878.55,517.19 878.52,527.9 771.35,466.03 771.38,455.32 "/>
  <polygon class="fil5" points="553.09,502.65 553.06,513.32 529.4,527.07 529.43,516.4 "/>
  <polygon class="fil7" points="553.09,502.65 529.43,516.4 501.15,500.07 524.82,486.32 "/>
  <polygon class="fil6" points="529.43,516.4 529.4,527.07 501.12,510.78 501.15,500.07 "/>
  <polygon class="fil3" points="484.93,510.78 484.9,521.48 475.35,527.03 475.38,516.36 "/>
  <polygon class="fil5" points="618.94,505.11 618.91,515.82 595.26,529.57 595.29,518.86 "/>
  <polygon class="fil6" points="595.29,518.86 595.26,529.57 566.98,513.23 567,502.53 "/>
  <polygon class="fil1" points="948.45,521.48 948.42,532.15 631.65,349.28 631.68,338.61 "/>
  <polygon class="fil3" points="559.98,506.61 559.95,517.32 536.28,531.07 536.31,520.36 "/>
  <polygon class="fil5" points="684.79,507.61 684.76,518.28 661.1,532.03 661.13,521.36 "/>
  <polygon class="fil6" points="661.13,521.36 661.1,532.03 632.83,515.69 632.85,505.03 "/>
  <polygon class="fil10" points="869.01,522.74 868.98,533.44 761.81,471.57 761.84,460.86 "/>
  <polygon class="fil11" points="878.55,517.19 878.52,527.9 868.98,533.44 869.01,522.74 "/>
  <polygon class="fil12" points="878.55,517.19 869.01,522.74 761.84,460.86 771.38,455.32 "/>
  <polygon class="fil3" points="625.83,509.11 625.8,519.78 602.15,533.53 602.17,522.86 "/>
  <polygon class="fil4" points="588.26,522.94 588.23,533.65 559.95,517.32 559.98,506.61 "/>
  <polygon class="fil6" points="726.98,523.82 726.95,534.48 698.68,518.15 698.71,507.48 "/>
  <polygon class="fil5" points="750.65,510.07 750.61,520.73 726.95,534.48 726.98,523.82 "/>
  <polygon class="fil3" points="691.68,511.57 691.65,522.23 667.98,535.98 668.02,525.32 "/>
  <polygon class="fil4" points="654.1,525.44 654.07,536.11 625.8,519.78 625.83,509.11 "/>
  <polygon class="fil2" points="816.5,512.53 816.47,523.23 792.8,536.99 792.83,526.28 "/>
  <polygon class="fil1" points="792.83,526.28 792.8,536.99 764.52,520.65 764.55,509.94 "/>
  <polygon class="fil3" points="757.53,514.03 757.5,524.73 733.84,538.49 733.87,527.78 "/>
  <polygon class="fil4" points="719.95,527.9 719.92,538.57 691.65,522.23 691.68,511.57 "/>
  <polygon class="fil3" points="823.38,516.53 823.35,527.19 799.69,540.94 799.72,530.28 "/>
  <polygon class="fil4" points="785.82,530.36 785.79,541.07 757.5,524.73 757.53,514.03 "/>
  <polygon class="fil4" points="851.65,532.82 851.63,543.53 823.35,527.19 823.38,516.53 "/>
  <polygon class="fil5" points="588.26,522.94 588.23,533.65 564.57,547.4 564.6,536.69 "/>
  <polygon class="fil6" points="564.6,536.69 564.57,547.4 536.28,531.07 536.31,520.36 "/>
  <polygon class="fil6" points="630.45,539.15 630.42,549.86 602.15,533.53 602.17,522.86 "/>
  <polygon class="fil5" points="654.1,525.44 654.07,536.11 630.42,549.86 630.45,539.15 "/>
  <polygon class="fil3" points="595.15,526.94 595.12,537.61 571.45,551.36 571.48,540.69 "/>
  <polygon class="fil5" points="719.95,527.9 719.92,538.57 696.26,552.32 696.29,541.65 "/>
  <polygon class="fil6" points="696.29,541.65 696.26,552.32 667.98,535.98 668.02,525.32 "/>
  <polygon class="fil3" points="660.99,529.4 660.95,540.07 637.31,553.82 637.34,543.15 "/>
  <polygon class="fil4" points="623.43,543.23 623.39,553.94 595.12,537.61 595.15,526.94 "/>
  <polygon class="fil2" points="785.82,530.36 785.79,541.07 762.13,554.82 762.15,544.11 "/>
  <polygon class="fil1" points="762.15,544.11 762.13,554.82 733.84,538.49 733.87,527.78 "/>
  <polygon class="fil3" points="726.84,531.86 726.81,542.57 703.15,556.32 703.18,545.61 "/>
  <polygon class="fil4" points="689.26,545.73 689.23,556.4 660.95,540.07 660.99,529.4 "/>
  <polygon class="fil2" points="851.65,532.82 851.63,543.53 827.96,557.28 828,546.57 "/>
  <polygon class="fil1" points="828,546.57 827.96,557.28 799.69,540.94 799.72,530.28 "/>
  <polygon class="fil3" points="792.7,534.32 792.67,545.03 769.01,558.78 769.04,548.07 "/>
  <polygon class="fil4" points="755.13,548.19 755.1,558.9 726.81,542.57 726.84,531.86 "/>
  <polygon class="fil4" points="820.98,550.65 820.95,561.36 792.67,545.03 792.7,534.32 "/>
  <polygon class="fil5" points="623.43,543.23 623.39,553.94 599.73,567.69 599.76,557.03 "/>
  <polygon class="fil6" points="599.76,557.03 599.73,567.69 571.45,551.36 571.48,540.69 "/>
  <polygon class="fil5" points="689.26,545.73 689.23,556.4 665.58,570.15 665.61,559.49 "/>
  <polygon class="fil6" points="665.61,559.49 665.58,570.15 637.31,553.82 637.34,543.15 "/>
  <polygon class="fil1" points="731.46,561.94 731.43,572.65 703.15,556.32 703.18,545.61 "/>
  <polygon class="fil2" points="755.13,548.19 755.1,558.9 731.43,572.65 731.46,561.94 "/>
  <polygon class="fil3" points="696.15,549.69 696.12,560.4 672.47,574.15 672.5,563.44 "/>
  <polygon class="fil2" points="820.98,550.65 820.95,561.36 797.28,575.11 797.32,564.4 "/>
  <polygon class="fil1" points="797.32,564.4 797.28,575.11 769.01,558.78 769.04,548.07 "/>
  <polygon class="fil3" points="762.01,552.15 761.98,562.86 738.32,576.61 738.35,565.94 "/>
  <polygon class="fil4" points="724.43,566.03 724.4,576.74 696.12,560.4 696.15,549.69 "/>
  <polygon class="fil4" points="790.29,568.49 790.25,579.19 761.98,562.86 762.01,552.15 "/>
  <polygon class="fil2" points="724.43,566.03 724.4,576.74 700.75,590.44 700.78,579.78 "/>
  <polygon class="fil1" points="700.78,579.78 700.75,590.44 672.47,574.15 672.5,563.44 "/>
  <polygon class="fil2" points="790.29,568.49 790.25,579.19 766.59,592.94 766.63,582.23 "/>
  <polygon class="fil1" points="766.63,582.23 766.59,592.94 738.32,576.61 738.35,565.94 "/>
  <polygon class="fil3" points="731.32,570.03 731.29,580.69 707.64,594.44 707.67,583.73 "/>
  <polygon class="fil4" points="759.6,586.32 759.56,597.03 731.29,580.69 731.32,570.03 "/>
  <polygon class="fil1" points="735.95,600.07 735.92,610.78 707.64,594.44 707.67,583.73 "/>
  <polygon class="fil2" points="759.6,586.32 759.56,597.03 735.92,610.78 735.95,600.07 "/>
  <polygon class="fil4" points="651.64,607.03 651.6,617.73 484.9,521.48 484.93,510.78 "/>
  <polygon class="fil10" points="642.08,612.61 642.05,623.28 475.35,527.03 475.38,516.36 "/>
  <polygon class="fil11" points="651.64,607.03 651.6,617.73 642.05,623.28 642.08,612.61 "/>
  <path class="fil13" d="M689.26 545.73l-28.27 -16.33 -23.65 13.75 28.27 16.34 23.65 -13.76zm46.69 54.34l23.65 -13.75 -28.28 -16.29 -23.65 13.7 28.28 16.34zm-110.12 -90.96l-23.66 13.75 28.28 16.29 23.65 -13.71 -28.27 -16.33zm-70.34 -40.63l-23.64 13.76 28.27 16.33 23.65 -13.75 -28.28 -16.34zm145.29 111.3l23.65 -13.75 -28.28 -16.34 -23.65 13.75 28.28 16.34zm-175.82 -101.5l23.65 -13.75 -28.29 -16.34 -23.65 13.75 28.29 16.34zm65.69 10.5l-23.65 13.75 28.29 16.33 23.65 -13.75 -28.29 -16.33zm65.87 2.5l-23.67 13.75 28.28 16.33 23.66 -13.75 -28.27 -16.33zm140.8 73.12l23.66 -13.75 -28.28 -16.33 -23.66 13.75 28.28 16.33zm30.68 -17.83l23.65 -13.75 -28.27 -16.29 -23.66 13.75 28.28 16.29zm-108.05 -18.67l-28.27 -16.33 -23.66 13.75 28.27 16.33 23.66 -13.75zm9.44 -38.25l28.27 16.33 23.67 -13.75 -28.28 -16.33 -23.66 13.75zm37.24 92.58l23.66 -13.74 -28.28 -16.34 -23.66 13.79 28.28 16.29zm-15.98 -72.16l-28.28 -16.34 -23.66 13.75 28.27 16.34 23.67 -13.75zm-32.76 -54.46l-23.66 13.75 28.27 16.33 23.66 -13.75 -28.27 -16.33zm-193.07 30.71l-23.67 13.75 28.28 16.33 23.66 -13.75 -28.27 -16.33zm92.05 -53.5l-23.66 13.75 28.28 16.33 23.66 -13.75 -28.28 -16.33zm70.34 40.62l-23.66 13.75 28.27 16.34 23.66 -13.79 -28.27 -16.3zm-101.03 -22.79l-23.66 13.75 28.28 16.34 23.66 -13.76 -28.28 -16.33zm8.97 76.29l-23.67 13.75 28.28 16.34 23.67 -13.8 -28.28 -16.29zm136.31 35l23.67 -13.75 -28.29 -16.33 -23.66 13.75 28.28 16.33zm61.37 -35.66l23.67 -13.75 -28.29 -16.34 -23.66 13.75 28.28 16.34zm-30.68 17.83l23.67 -13.75 -28.29 -16.33 -23.66 13.75 28.28 16.33zm-206.51 -83.67l23.66 -13.75 -28.29 -16.33 -23.66 13.75 28.29 16.33zm30.69 -17.83l23.66 -13.75 -28.29 -16.33 -23.66 13.75 28.29 16.33zm-92.06 53.5l23.66 -13.75 -28.29 -16.33 -23.66 13.75 28.29 16.33zm65.71 10.5l-23.67 13.75 28.29 16.33 23.66 -13.75 -28.28 -16.33zm122.74 -71.33l-23.67 13.75 28.29 16.33 23.66 -13.75 -28.28 -16.33zm-30.68 17.83l-23.66 13.75 28.28 16.33 23.66 -13.75 -28.28 -16.33zm-30.69 17.83l-23.67 13.75 28.29 16.34 23.66 -13.75 -28.28 -16.34zm247.66 51.8l9.54 -5.55 -107.17 -61.87 -9.54 5.54 107.17 61.88zm-226.93 89.87l9.56 -5.58 -166.71 -96.25 -9.55 5.58 166.7 96.25zm-10.4 -274l316.77 182.87 -262.48 152.55 -316.77 -182.92 262.48 -152.5z"/>
  <polygon class="fil7" points="609.99,428.86 586.33,442.61 558.04,426.28 581.7,412.53 "/>
  <polygon class="fil7" points="645.15,449.15 621.49,462.9 593.21,446.57 616.87,432.82 "/>
  <polygon class="fil7" points="711,451.61 687.34,465.36 659.05,449.03 682.72,435.28 "/>
  <polygon class="fil1" points="951.06,475.07 951.03,485.73 926.38,471.53 926.4,460.82 "/>
  <polygon class="fil2" points="926.4,460.82 926.38,471.53 901.88,485.73 901.91,475.07 "/>
  <polygon class="fil7" points="680.32,469.44 656.66,483.19 628.38,466.86 652.04,453.11 "/>
  <polygon class="fil7" points="746.16,471.94 722.5,485.69 694.23,469.36 717.89,455.61 "/>
  <polygon class="fil7" points="517.93,482.36 494.27,496.11 465.98,479.78 489.64,466.03 "/>
  <polygon class="fil14" points="583.77,484.82 560.12,498.57 531.85,482.24 555.49,468.48 "/>
  <polygon class="fil7" points="649.63,487.28 625.97,501.03 597.68,484.69 621.35,470.94 "/>
  <polygon class="fil14" points="715.48,489.74 691.82,503.53 663.55,487.19 687.21,473.44 "/>
  <polygon class="fil7" points="781.33,492.23 757.66,505.98 729.39,489.65 753.05,475.9 "/>
  <polygon class="fil7" points="618.94,505.11 595.29,518.86 567,502.53 590.65,488.78 "/>
  <polygon class="fil2" points="1006.68,487.65 1006.65,498.32 948.42,532.15 948.45,521.48 "/>
  <path class="fil15" d="M711.95 365.4l24.49 -14.25 -24.65 -14.25 -24.5 14.25 24.66 14.25zm214.62 123.92l24.49 -14.25 -24.66 -14.25 -24.49 14.25 24.66 14.25zm-236.67 -184.59l316.78 182.92 -58.23 33.83 -316.77 -182.87 58.22 -33.88z"/>
  <polygon class="fil7" points="684.79,507.61 661.13,521.36 632.85,505.03 656.52,491.28 "/>
  <polygon class="fil7" points="750.65,510.07 726.98,523.82 698.71,507.48 722.37,493.73 "/>
  <polygon class="fil14" points="816.5,512.53 792.83,526.28 764.55,509.94 788.21,496.19 "/>
  <polygon class="fil7" points="588.26,522.94 564.6,536.69 536.31,520.36 559.98,506.61 "/>
  <polygon class="fil7" points="654.1,525.44 630.45,539.15 602.17,522.86 625.83,509.11 "/>
  <polygon class="fil7" points="719.95,527.9 696.29,541.65 668.02,525.32 691.68,511.57 "/>
  <polygon class="fil14" points="785.82,530.36 762.15,544.11 733.87,527.78 757.53,514.03 "/>
  <polygon class="fil14" points="851.65,532.82 828,546.57 799.72,530.28 823.38,516.53 "/>
  <polygon class="fil7" points="623.43,543.23 599.76,557.03 571.48,540.69 595.15,526.94 "/>
  <polygon class="fil7" points="689.26,545.73 665.61,559.49 637.34,543.15 660.99,529.4 "/>
  <polygon class="fil14" points="755.13,548.19 731.46,561.94 703.18,545.61 726.84,531.86 "/>
  <polygon class="fil14" points="820.98,550.65 797.32,564.4 769.04,548.07 792.7,534.32 "/>
  <polygon class="fil14" points="724.43,566.03 700.78,579.78 672.5,563.44 696.15,549.69 "/>
  <polygon class="fil14" points="790.29,568.49 766.63,582.23 738.35,565.94 762.01,552.19 "/>
  <polygon class="fil14" points="759.6,586.32 735.95,600.07 707.67,583.73 731.32,570.03 "/>
  <polygon class="fil12" points="651.64,607.03 642.08,612.61 475.38,516.36 484.93,510.78 "/>
  <polygon class="fil4" points="685.97,674.03 685.94,684.69 369.17,501.82 369.2,491.11 "/>
  <polygon class="fil3" points="948.45,521.48 948.42,532.15 685.94,684.69 685.97,674.03 "/>
  <polygon class="fil16" points="966.45,464.42 966.48,464.36 977.83,470.94 977.81,470.97 "/>
  <path class="fil17" d="M977.83 470.94l-11.35 -6.58c0.21,-0.49 0.41,-0.98 0.61,-1.5l0.01 -0.03 0.01 -0.01 0 -0.02 0.02 -0.03 0.01 -0.03 0.06 -0.17 11.35 6.62c-0.14,0.35 -0.28,0.69 -0.42,1.04l-0.01 0.03 -0.01 0.03 0 0 -0.01 0.02 -0.01 0.03 -0.02 0.03 -0.01 0.03 -0.01 0.02 -0.01 0.03 -0.01 0.03 -0.01 0.03 -0.19 0.43z"/>
  <path class="fil18" d="M978.55 469.19l-11.35 -6.62 0.27 -0.72 0.01 -0.03 0.01 -0.03 0.01 -0.03 0.01 -0.02 0.02 -0.03 0 -0.03 0.01 0c0.11,-0.31 0.22,-0.62 0.33,-0.95l11.35 6.59 -0.08 0.23 0 0.01c-0.18,0.54 -0.38,1.09 -0.59,1.63z"/>
  <path class="fil19" d="M979.22 467.32l-11.35 -6.59c0.1,-0.31 0.2,-0.63 0.3,-0.95l0.01 -0.03 0.01 -0.04 0.01 -0.03 0.01 -0.03 0.01 -0.03 0 -0.01 0.01 -0.03 0.01 -0.03 0.01 -0.03 0.01 -0.03 0.01 -0.03 0.01 -0.04 0 -0.03 0.01 -0.01 0 -0.02 0.2 -0.67 11.34 6.62c-0.18,0.67 -0.39,1.34 -0.61,2.01z"/>
  <path class="fil20" d="M979.83 465.31l-11.34 -6.62 0.1 -0.38 0.01 -0.04 0.15 -0.6 0.01 -0.03 0.02 -0.07 0.01 -0.03 0 -0.01 0.01 -0.03 0.01 -0.04 0 -0.03 0.01 -0.04 0.01 -0.03 0.01 -0.04 0 -0.01 0.01 -0.02 0.01 -0.04 0 -0.03 0.01 -0.04 0.01 -0.03 0.01 -0.04 0.01 -0.03 0 0 0.02 -0.11 0.01 -0.03 0.01 -0.04 0.01 -0.04 0 -0.01 0 -0.02 0.01 -0.03 0.01 -0.04 0.01 -0.04 0.01 -0.03 0 -0.04 0.01 -0.03 0 0 0.01 -0.04 0.01 -0.03 0 -0.04 0.02 -0.07 11.35 6.59 0 0.03 -0.01 0.04 -0.01 0.03 -0.01 0.04c-0.09,0.41 -0.18,0.82 -0.29,1.24l-0.01 0.03 -0.01 0.04 -0.01 0.03 -0.01 0.06 0 0.02 -0.01 0.03 -0.19 0.69z"/>
  <polygon class="fil6" points="980.39,463.03 969.04,456.44 969.06,456.36 969.07,456.31 969.08,456.23 969.09,456.19 969.1,456.16 969.1,456.14 969.11,456.1 969.12,456.06 969.13,456.01 969.14,455.97 969.14,455.93 969.14,455.93 969.15,455.88 969.16,455.84 969.17,455.8 969.18,455.76 969.18,455.71 969.19,455.7 969.19,455.67 969.2,455.63 969.21,455.58 969.22,455.54 969.23,455.5 969.23,455.47 969.23,455.45 969.24,455.41 969.25,455.37 969.26,455.33 969.26,455.28 969.28,455.2 969.29,455.15 969.3,455.07 969.31,455.02 969.31,455.01 969.32,454.98 969.32,454.94 969.33,454.9 969.34,454.85 969.34,454.81 969.35,454.79 969.35,454.77 969.36,454.72 969.37,454.68 969.39,454.56 969.39,454.55 969.47,453.95 969.48,453.91 969.48,453.88 969.49,453.86 969.51,453.69 980.86,460.32 980.84,460.46 980.84,460.48 980.83,460.52 980.82,460.57 980.82,460.61 980.81,460.65 980.81,460.68 980.81,460.69 980.8,460.73 980.8,460.77 980.79,460.81 980.78,460.86 980.78,460.9 980.78,460.91 980.77,460.94 980.76,460.98 980.76,461.02 980.75,461.06 980.75,461.11 980.74,461.14 980.74,461.15 980.73,461.19 980.73,461.23 980.72,461.28 980.71,461.32 980.7,461.36 980.7,461.37 980.7,461.4 980.69,461.44 980.68,461.49 980.68,461.53 980.67,461.57 980.67,461.59 980.66,461.61 980.66,461.66 980.65,461.7 980.64,461.74 980.63,461.78 980.63,461.82 980.63,461.83 980.62,461.87 980.61,461.91 980.6,461.95 980.6,462 980.59,462.04 980.59,462.05 980.58,462.08 980.57,462.13 980.56,462.17 980.56,462.21 980.55,462.25 980.54,462.28 980.54,462.3 980.53,462.34 980.52,462.38 980.52,462.43 980.51,462.47 980.5,462.51 980.5,462.51 980.49,462.55 980.48,462.6 980.47,462.64 980.46,462.73 980.45,462.74 980.45,462.77 980.44,462.81 980.43,462.85 980.42,462.9 980.41,462.94 980.41,462.96 980.4,462.98 "/>
  <path class="fil21" d="M980.86 460.32l-11.35 -6.63 0.01 -0.06 0 -0.06 0.02 -0.12 0 -0.03 0.01 -0.03 0 -0.06 0.01 -0.06 0.01 -0.06 0.03 -0.3 0.01 -0.06 0 -0.06 0.01 -0.04 0 -0.02 0 -0.07 0.01 -0.06 0.01 -0.06 0 -0.02 0 -0.04 0.01 -0.06 0.01 -0.12 0 0 0 -0.06 0.01 -0.06 0 -0.06 0.01 -0.05 0 -0.01 0 -0.06 0.01 -0.15 0 -0.03 0.01 -0.06 0 -0.06 0.01 -0.12 0 -0.06 0.02 -0.3 0 -0.04 0 -0.02 0 -0.06 0.01 -0.06 0 -0.06 0 -0.02 0 -0.1 0 -0.06 0.01 -0.06 0 0 0 -0.05 0 -0.06 0 -0.06 0 -0.05 0 -0.01 0 -0.06 0.01 -0.06 0 -0.06 0 -0.03 0 -0.03 0 -0.06 0 -0.06 0 -0.06 0 -0.01 0 -0.04 0 -0.06 0 -0.06 0 -0.06c-0.02,-6.21 -2.22,-10.58 -5.77,-12.67l11.35 6.59 0.17 0.1 0.16 0.1 0.16 0.1 0.16 0.11 0 0 0.16 0.12 0.15 0.11 0 0 0.16 0.12 0 0 0.15 0.12 0 0 0.29 0.26 0 0 0.15 0.13 0 0c0.43,0.4 0.83,0.85 1.2,1.34l0 0c0.17,0.21 0.32,0.44 0.47,0.67l0 0 0.11 0.18 0.01 0 0.1 0.18 0.01 0 0.1 0.18 0 0c0.11,0.19 0.21,0.38 0.31,0.57l0 0 0.19 0.39 0 0 0.09 0.2 0 0 0.18 0.41 0 0 0.08 0.21 0.01 0 0.08 0.22 0 0 0.08 0.21 0 0 0.07 0.22 0 0 0.07 0.23 0.01 0 0.07 0.22 0 0 0.06 0.23 0 0 0.07 0.23 0 0 0.06 0.23 0 0 0.06 0.24 0.06 0.24 0 0 0.05 0.24 0.05 0.25 0.05 0.25 0.05 0.25 0.04 0.25 0.04 0.26 0.03 0.26 0.04 0.26 0 0 0.03 0.26 0.03 0.27 0.02 0.27 0.02 0.28 0.02 0.27 0.01 0.28 0.02 0.28 0 0.29 0.01 0.28 0 0.29 0 0.06 0 0.06 0 0.06 0 0.04 0 0.03 0 0.06 0 0.06 0 0.06 0 0.01 0 0.05 0 0.06 0 0.06 0 0.05 0 0.01 0 0.06 -0.01 0.06 0 0.06 0 0.03 0 0.03 0 0.06 -0.01 0.35 -0.01 0 0 0.07 -0.01 0.16 0 0.01 -0.01 0.19 0 0.02 0 0.03 0 0.06 -0.03 0.36 0 0.01 0 0.06 -0.01 0.06 -0.01 0.06 0 0.03 0 0.03 0 0.06 -0.01 0.06 -0.01 0.06 0 0.01 0 0.05 -0.01 0.06 0 0.06 -0.01 0.06 0 0 0 0.06 -0.01 0.06 -0.01 0.07 0 0.03 0 0.03 -0.01 0.06 -0.01 0.06 0 0.06 -0.01 0.02 0 0.04 -0.01 0.06 0 0.07 -0.01 0.06 0 0 -0.01 0.06 -0.01 0.06 -0.01 0.06 0 0.04 0 0.03 -0.01 0.06z"/>
  <path class="fil22" d="M961.26 427.82l-11.36 -6.63c0.76,-0.43 1.51,-0.84 2.25,-1.21l0.06 -0.03 0.07 -0.04 0.23 -0.11 0.07 -0.04 0.02 0 0.06 -0.03 0.23 -0.11 0.07 -0.04 0.08 -0.03 0.01 -0.01 0.06 -0.03 0.08 -0.04 0.07 -0.03 0.08 -0.04 0.07 -0.03 0.16 -0.07 0.07 -0.03 0.08 -0.04 0.07 -0.03 0.08 -0.03 0.06 -0.03 0.01 -0.01 0.08 -0.03 0.07 -0.04 0.08 -0.03 0.07 -0.03 0.07 -0.03 0.06 -0.03 0.02 -0.01 0.07 -0.03 0.08 -0.03 0.22 -0.09 11.35 6.62 -0.07 0.03 -0.07 0.03c-1.54,0.62 -3.11,1.43 -4.71,2.36z"/>
  <path class="fil23" d="M966.11 425.4l-11.35 -6.62c0.44,-0.18 0.87,-0.36 1.3,-0.51l0.05 -0.02 0.02 -0.01 0.06 -0.02 0.07 -0.03 0.25 -0.09 0.03 -0.01 0.42 -0.14 0.01 0 0.06 -0.02 0.06 -0.03 0.06 -0.02 0.07 -0.02 0.06 -0.02 0.07 -0.02 0.05 -0.02 0.01 0 0.13 -0.04 0.06 -0.02 0.06 -0.02 0.07 -0.02 0.06 -0.02 0.03 -0.01c0.35,-0.11 0.7,-0.21 1.05,-0.31l11.34 6.62 -0.06 0.02 -0.06 0.02c-1,0.25 -2.02,0.6 -3.06,1.01l0 0 -0.13 0.05 -0.07 0.03 -0.06 0.02 -0.07 0.03 -0.06 0.03 -0.53 0.21z"/>
  <path class="fil24" d="M970.21 423.98l0 0 -11.34 -6.62 0.24 -0.06 0.05 -0.01 0.04 -0.01c0.92,-0.22 1.83,-0.43 2.73,-0.55l11.35 6.59 -0.76 0.13 -0.02 0.01 -0.07 0.01 -0.05 0.01 -0.05 0.01 -0.09 0.02 -0.05 0.01 -0.05 0 -0.05 0.01 0 0.01 -0.04 0 -0.05 0.01 -0.05 0.01 -0.05 0.01 -0.04 0.01 -0.05 0.01 -0.05 0.01 -0.05 0.01 -0.03 0.01 -0.02 0.01 -0.04 0.01 -0.05 0.01 -0.05 0.01 -0.05 0.01 -0.05 0.01 -0.09 0.02 -0.05 0.01 -0.01 0 -0.04 0.01 -0.19 0.05 -0.05 0.01 -0.05 0.01 -0.05 0.01 -0.04 0.02 -0.01 0 -0.33 0.08 -0.05 0.02 -0.02 0 -0.03 0.01 -0.05 0.01 -0.05 0.02 -0.05 0.01 -0.05 0.01z"/>
  <path class="fil25" d="M973.28 423.32l-11.35 -6.59c0.2,-0.03 0.41,-0.07 0.61,-0.1l0.04 -0.01 0.05 0 0.04 -0.01c0.63,-0.08 1.26,-0.13 1.88,-0.15l11.32 6.6c-0.64,0.03 -1.28,0.09 -1.93,0.17l-0.04 0.01 -0.04 0 -0.05 0.01 -0.04 0 -0.04 0.01 -0.02 0 -0.02 0 -0.41 0.06z"/>
  <path class="fil26" d="M975.87 423.06l-11.32 -6.6 0.41 -0.02 0.04 0 0.04 0c0.6,0 1.21,0.01 1.79,0.04l11.36 6.59c-0.39,-0.02 -0.78,-0.03 -1.18,-0.03l-0.04 0 -0.03 0 -0.04 0 -0.04 0 -0.02 0 -0.01 0 -0.04 0 -0.04 0c-0.29,0 -0.59,0.01 -0.88,0.02z"/>
  <path class="fil27" d="M978.19 423.07l-11.36 -6.59 0.3 0.02 0.04 0.01 0.26 0.02 0.04 0 0.03 0.01 0.03 0 0.04 0 0.03 0.01 0.03 0 0.04 0 0.03 0.01 0.02 0 0.01 0 0.04 0 0.03 0.01 0.03 0 0.04 0 0.03 0.01 0.03 0 0.03 0.01 0.04 0 0.03 0 0.03 0.01 0.02 0 0.02 0 0.03 0.01 0.03 0 0.03 0.01 0.04 0 0.03 0 0.03 0.01 0.04 0 0.03 0.01 0.03 0 0.03 0.01 0.02 0 0.02 0 0.06 0.01 0.03 0.01 0.04 0 0.03 0.01 0.03 0 0.03 0.01 0.26 0.04 11.36 6.59c-0.69,-0.13 -1.4,-0.21 -2.11,-0.25z"/>
  <path class="fil27" d="M980.3 423.32l-11.36 -6.59 0.75 0.15 0.03 0.01 0.03 0 0.03 0.01 0.03 0.01 0.03 0 0.02 0.01 0.01 0c0.28,0.06 0.55,0.13 0.82,0.21l0.04 0.01 0.02 0.01 0.04 0.01 0.11 0.03 11.36 6.59 -0.03 -0.01 0 0c-0.49,-0.14 -0.99,-0.26 -1.49,-0.36l-0.04 -0.01 -0.03 -0.01 -0.03 0 -0.03 -0.01 -0.03 -0.01 -0.28 -0.05z"/>
  <path class="fil28" d="M982.26 423.78l-11.36 -6.59 0.15 0.04 0.03 0.01 0.03 0.01c0.62,0.19 1.23,0.41 1.82,0.67l11.11 6.48c-0.28,-0.11 -0.56,-0.22 -0.85,-0.32l-0.03 -0.01 -0.02 -0.01 -0.03 -0.01c-0.27,-0.1 -0.55,-0.19 -0.82,-0.27l-0.03 0z"/>
  <path class="fil16" d="M984.04 424.4l-11.11 -6.48c0.61,0.27 1.2,0.56 1.77,0.9l10.92 6.33 -0.16 -0.08 -0.01 0 -0.02 -0.01 -0.03 -0.02 -0.02 -0.01c-0.44,-0.23 -0.89,-0.44 -1.34,-0.63z"/>
  <path class="fil21" d="M915.19 482.69l-0.01 -0.02 0 -0.02 0 -0.02 0 -0.02 0 -0.03 0 -0.02 0 -0.02 0 -0.02 0 -0.02 0 -0.02 0 -0.02 0 -0.02 0 -0.02 0 -0.02 0 -0.02 0 0 0 -0.02 0 -0.02 0 -0.02 0 -0.02 -0.01 -0.02 0 -0.02 0 -0.02 0 -0.03 0 -0.02 0 -0.02 0 -0.02 0 -0.02 0 -0.02 0 -0.02 0 -0.02 0 -0.02 0 -0.02 0 -0.02 0 -0.02 0 -0.02 0 -0.03 0 -0.02 0 -0.02 0 -0.02 0 -0.01 0 -0.01 0 -0.02 0 -0.02 0 -0.02 0 -0.02 -0.01 -0.04 0 -0.02 0 -0.02 0 -0.03 0 -0.02 0 -0.04 0 -0.02 0 -0.02 0 -0.02 0 -0.02 0 -0.02 0 -0.02 0 -0.03 0 -0.02 0 -0.02 0 -0.02 0 -0.02 0 -0.02 0.01 -0.73 0 -0.1 0 -0.1 0 -0.11 0 0 0 -0.1 0.01 -0.11 0.01 -0.52 0.01 -0.1 0 -0.11 0 -0.1 0 0 0.01 -0.11 0 -0.1 0.01 -0.11 0 -0.1 0.01 -0.11 0 -0.11 0.01 -0.1 0.01 -0.11 0 0 0.03 -0.52 0.01 -0.11 0 -0.11 0.01 -0.1 0.01 -0.11 0.04 -0.53 0.01 -0.11 0.01 -0.11 0.01 -0.11 0.01 -0.1 0.08 -0.76 0.01 -0.1 0.01 -0.11 0.01 -0.11 0.02 -0.11 0.07 -0.65 0.02 -0.11 11.35 6.62 -0.02 0.22 -0.02 0.11 -0.01 0.1 -0.01 0.11 -0.02 0.11 -0.07 0.64 -0.01 0.1 -0.01 0.11 -0.01 0.04 0 0.07 -0.08 0.85 -0.01 0.11 0 0.03 -0.01 0.07c-0.03,0.32 -0.05,0.64 -0.07,0.96l0 0.03 0 0.07 -0.05 0.95 0 0.03 -0.01 0.08 -0.02 0.74 0 0.1 0 0.11 0 0.02 -0.01 0.09 0 0.1 0 0.84 0 0.03 0 0.02 0 0.02 0 0.02 0 0.03 0 0.04 0 0.02 0 0.03 0 0.02 0 0.02 0 0.07 0 0.02 0 0.02 0 0.02 0 0.05 0 0.02 0 0.02 0 0.02 0 0.03 0 0 0 0.02 0 0.02 0 0.02 0 0.03 0 0.02 0 0.04 0 0.02 0.01 0.03 0 0.02 0 0.02 0 0.02 0 0.02 0 0.03 0 0.02 0 0.02 0 0.02 0 0.02 0 0.03 0 0.02 0 0.02 0 0.02 0 0.02 0 0 0 0.03 0 0.02 0 0.02 0 0.02 0.01 0.02 0 0.03 0 0.02 0 0.02 0 0.02 0 0.02 0 0.03 0 0.02 0 0.02 0 0.02 0 0.02 0 0.02 0 0.03 0 0.02 -11.35 -6.71z"/>
  <path class="fil6" d="M926.96 481.19l-11.35 -6.62 0.01 -0.08 0.01 -0.07 0.01 -0.07 0.01 -0.08 0.01 -0.07 0.07 -0.53 0.01 -0.07c0.19,-1.27 0.42,-2.56 0.7,-3.82l11.35 6.58c-0.3,1.42 -0.55,2.81 -0.75,4.23l0 0 -0.01 0.07 -0.07 0.53z"/>
  <path class="fil20" d="M927.79 476.36l-11.35 -6.58c0.28,-1.34 0.61,-2.67 0.98,-4l11.35 6.58c-0.37,1.33 -0.7,2.67 -0.98,4z"/>
  <path class="fil19" d="M928.77 472.36l-11.35 -6.58c0.27,-0.99 0.55,-1.94 0.86,-2.91l0.02 -0.06 0.02 -0.05 0.02 -0.06 0.02 -0.06 0.01 -0.05 0.13 -0.4 11.35 6.63c-0.34,1.02 -0.66,2.07 -0.95,3.1l0 0 -0.13 0.44z"/>
  <path class="fil18" d="M929.85 468.82l-11.35 -6.63 0.05 -0.15 0.01 -0.01 0.01 -0.04 0.02 -0.05 0.01 -0.05 0.02 -0.05 0.02 -0.05 0.02 -0.05 0.02 -0.05 0.01 -0.06 0.02 -0.05 0.02 -0.05 0.02 -0.05 0.01 -0.05c0.25,-0.7 0.5,-1.4 0.77,-2.11l0.02 -0.05 0.02 -0.05 0.02 -0.06 0.01 -0.05 0.02 -0.05 0.02 -0.05 0.02 -0.06 0.02 -0.05 11.36 6.63 0 0 -0.02 0.05 -0.02 0.05 -0.02 0.05c-0.4,1.03 -0.78,2.07 -1.13,3.14z"/>
  <path class="fil17" d="M931.04 465.53l-11.36 -6.63 0 0 0.02 -0.05 0.02 -0.05 0.01 -0.02 0.01 -0.03 0.02 -0.04 0.02 -0.05 0.02 -0.05 0.02 -0.05 0.02 -0.05 0.02 -0.05 0.02 -0.05 0.01 -0.05 0.02 -0.04 0.02 -0.05 0.02 -0.05 0.02 -0.05 0.02 -0.05 0.02 -0.05 0.02 -0.05 0.02 -0.05 0.02 -0.05 0.02 -0.04 0.02 -0.05 0.06 -0.15 0.02 -0.05 0.03 -0.09 0.01 -0.01 0.02 -0.05 0.02 -0.04 0.02 -0.05 0.02 -0.05 0.02 -0.05 0.02 -0.05 0.02 -0.05 0.02 -0.05 0.02 -0.05 0.02 -0.04 0.02 -0.05 0.02 -0.05 0.02 -0.05 0.02 -0.05 0.02 -0.05 0.02 -0.05 0.02 -0.05 0.02 -0.05 0.01 -0.03 0.01 -0.01 0.02 -0.05 0.02 -0.05 0.02 -0.05 0.29 -0.68 11.36 6.62c-0.33,0.76 -0.65,1.53 -0.96,2.3l-0.02 0.05 -0.02 0.04 -0.02 0.05 -0.02 0.05 -0.01 0.05 -0.02 0.05 -0.02 0.05 -0.02 0.05 -0.02 0.05 -0.02 0.04 -0.02 0.05 -0.11 0.3z"/>
  <path class="fil16" d="M932.32 462.4l-11.36 -6.62 0.02 -0.05 0.02 -0.05 0.03 -0.04 0.02 -0.05c0.33,-0.77 0.69,-1.54 1.05,-2.32l0.03 -0.05 0 -0.01 0.23 -0.47 11.34 6.62c-0.42,0.87 -0.83,1.75 -1.22,2.65l-0.02 0.05 -0.02 0.05 -0.02 0.05 0 0.01 -0.02 0.04 -0.08 0.19z"/>
  <path class="fil28" d="M933.7 459.36l-11.34 -6.62c0.19,-0.41 0.39,-0.81 0.59,-1.21l0.02 -0.05 0.03 -0.04 0.02 -0.05 0.79 -1.52 0.02 -0.05 0.03 -0.04 11.35 6.58c-0.44,0.84 -0.87,1.69 -1.28,2.53l-0.02 0.05 -0.02 0.03 0 0.01 -0.03 0.05 -0.02 0.05 -0.02 0.05 -0.02 0.04 -0.03 0.05 -0.07 0.14z"/>
  <path class="fil27" d="M935.21 456.36l-11.35 -6.58 0.02 -0.05 0.03 -0.05 0.02 -0.04 0.03 -0.05 0.1 -0.19 0.02 -0.04 0.03 -0.05 0.02 -0.05 0.02 -0.04 0.01 0 0.02 -0.05 0.38 -0.69 0.03 -0.04 0.02 -0.05 0.03 -0.05 0.02 -0.04 0.03 -0.05 0.03 -0.04 0.1 -0.19 0.02 -0.04 0.03 -0.05 0.03 -0.05 0.02 -0.04 0.03 -0.05 0.02 -0.04 0.03 -0.05 0.03 -0.05 0.02 -0.04 0.03 -0.05 0.03 -0.04 0.02 -0.05 0.03 -0.05 0.02 -0.04 0.03 -0.05 0.03 -0.05 0.02 -0.04 0.03 -0.05 0.01 -0.02 0.21 -0.35 11.34 6.62c-0.57,0.96 -1.11,1.96 -1.64,2.92z"/>
  <path class="fil27" d="M936.85 453.44l-11.34 -6.62 0.24 -0.41 0.02 -0.04 0.01 -0.02c0.49,-0.81 1,-1.64 1.52,-2.45l11.36 6.58c-0.62,0.96 -1.23,1.96 -1.81,2.96z"/>
  <path class="fil26" d="M938.66 450.48l-11.36 -6.58c0.61,-0.96 1.23,-1.88 1.86,-2.81l0.04 -0.04 0.03 -0.05 0.1 -0.14 11.35 6.58c-0.69,1 -1.37,2 -2.02,3.04z"/>
  <path class="fil25" d="M940.68 447.44l-11.35 -6.58c0.75,-1.08 1.53,-2.13 2.33,-3.16l11.34 6.62c-0.79,1 -1.57,2.08 -2.32,3.12z"/>
  <path class="fil24" d="M943 444.32l-11.34 -6.62c0.7,-0.9 1.42,-1.79 2.15,-2.65l0.04 -0.05 0.05 -0.05 0.04 -0.06 0.54 -0.61 11.36 6.58c-0.97,1.12 -1.92,2.25 -2.84,3.46z"/>
  <path class="fil23" d="M945.84 440.86l-11.36 -6.58c0.52,-0.6 1.05,-1.19 1.58,-1.77l0.06 -0.07 0.06 -0.06 0.24 -0.26 0.06 -0.06 0.06 -0.06c0.58,-0.62 1.17,-1.22 1.76,-1.8l11.34 6.62 -0.24 0.23 -0.06 0.06 -0.05 0.05 -0.01 0.01c-1.18,1.16 -2.33,2.41 -3.44,3.69z"/>
  <path class="fil22" d="M949.64 436.82l-11.34 -6.62c1.46,-1.45 2.97,-2.81 4.52,-4.08l0.03 -0.02 0.04 -0.03 0.14 -0.11 0.57 -0.45 0.33 -0.27 0.19 -0.14 0.18 -0.14c1.4,-1.07 2.82,-2.06 4.27,-2.96l0.19 -0.12 0.54 -0.33 0.6 -0.36 11.36 6.63c-2.67,1.53 -5.27,3.38 -7.78,5.49l-0.08 0.07 -0.09 0.08 -0.18 0.15 -0.18 0.15 -0.18 0.16 -0.02 0.01 -0.33 0.3 -0.18 0.15 -0.17 0.16 -0.18 0.16c-0.76,0.68 -1.51,1.39 -2.25,2.12z"/>
  <path class="fil7" d="M977.82 470.97c2.09,-4.82 3.3,-9.86 3.29,-14.53 -0.03,-12.5 -8.91,-17.58 -19.8,-11.29 -10.89,6.29 -19.73,21.58 -19.69,34.13 0,0.53 0.02,1.05 0.06,1.56l-14.28 9.06 -0.85 -0.5c-0.02,-0.47 -0.03,-0.94 -0.03,-1.42 -0.06,-22.08 15.52,-49.08 34.74,-60.16 19.22,-11.13 34.91,-2.17 34.97,19.91 0.03,9.47 -2.83,19.84 -7.6,29.47l-10.81 -6.23z"/>
  <polygon class="fil16" points="750.95,340.01 751.02,339.86 762.37,346.44 762.31,346.57 "/>
  <path class="fil17" d="M762.37 346.44l-11.35 -6.58 0.07 -0.18 0.01 -0.02 0.01 -0.03 0.01 -0.03c0.22,-0.51 0.43,-1.02 0.63,-1.53l11.35 6.58 -0.02 0.06 -0.02 0.03 0 0 -0.01 0.03 -0.01 0.03 -0.01 0.03 -0.01 0.02c-0.21,0.54 -0.42,1.06 -0.65,1.59z"/>
  <path class="fil18" d="M763.1 344.65l-11.35 -6.58c0.23,-0.62 0.46,-1.25 0.67,-1.87l11.34 6.62c-0.11,0.33 -0.23,0.66 -0.35,1l0 0 -0.01 0.03 -0.01 0.03 -0.01 0.02 -0.01 0.03 -0.01 0.03 -0.01 0.03 -0.01 0.03 -0.01 0.03 -0.01 0 0 0.02 -0.02 0.03 -0.01 0.03 -0.01 0.03 -0.01 0.03 -0.17 0.46z"/>
  <path class="fil19" d="M763.76 342.82l-11.34 -6.62c0.22,-0.67 0.42,-1.34 0.61,-2.01l11.35 6.59c-0.14,0.5 -0.29,1 -0.45,1.51l-0.01 0.04 -0.01 0.03 -0.01 0.03 -0.01 0.03 -0.01 0.01 0 0.03 -0.01 0.03 -0.01 0.03 -0.1 0.3z"/>
  <polygon class="fil20" points="764.38,340.78 753.03,334.19 753.17,333.67 753.18,333.63 753.19,333.6 753.2,333.52 753.21,333.49 753.22,333.45 753.23,333.42 753.24,333.38 753.25,333.35 753.26,333.32 753.26,333.31 753.27,333.28 753.28,333.24 753.29,333.21 753.29,333.17 753.3,333.14 753.31,333.1 753.32,333.08 753.32,333.07 753.33,333.03 753.34,333 753.35,332.96 753.35,332.93 753.36,332.89 753.37,332.86 753.37,332.85 753.38,332.82 753.39,332.79 753.4,332.75 753.41,332.72 753.41,332.68 753.42,332.65 753.43,332.62 753.43,332.61 753.44,332.58 753.45,332.54 753.46,332.51 753.46,332.47 753.47,332.44 753.48,332.4 753.48,332.39 753.49,332.36 753.5,332.33 753.5,332.3 753.51,332.26 753.56,332.05 753.56,332.01 753.58,331.94 764.93,338.53 764.93,338.56 764.92,338.6 764.91,338.63 764.9,338.67 764.9,338.7 764.89,338.73 764.89,338.74 764.88,338.77 764.87,338.81 764.86,338.84 764.86,338.88 764.85,338.91 764.84,338.95 764.84,338.96 764.83,338.98 764.83,339.02 764.82,339.05 764.81,339.09 764.8,339.12 764.79,339.16 764.78,339.2 764.78,339.23 764.77,339.26 764.76,339.3 764.75,339.34 764.74,339.37 764.73,339.41 764.73,339.43 764.73,339.44 764.72,339.48 764.71,339.51 764.7,339.55 764.69,339.58 764.68,339.62 764.68,339.65 764.67,339.66 764.67,339.69 764.66,339.72 764.65,339.76 764.64,339.79 764.63,339.83 764.62,339.86 764.62,339.89 764.61,339.9 764.6,339.93 764.6,339.97 764.59,340 764.58,340.04 764.57,340.07 764.55,340.14 764.54,340.18 764.53,340.21 764.52,340.25 764.5,340.35 764.5,340.35 764.49,340.39 764.48,340.42 764.47,340.46 "/>
  <polygon class="fil6" points="764.93,338.53 753.58,331.94 753.58,331.93 753.59,331.9 753.6,331.86 753.61,331.81 753.62,331.77 753.62,331.73 753.63,331.7 753.63,331.69 753.64,331.64 753.65,331.6 753.66,331.56 753.67,331.51 753.68,331.47 753.68,331.47 753.69,331.43 753.69,331.38 753.7,331.34 753.71,331.3 753.72,331.26 753.72,331.24 753.73,331.21 753.74,331.17 753.74,331.13 753.75,331.08 753.8,330.83 753.81,330.78 753.81,330.78 753.81,330.74 753.83,330.65 753.84,330.61 753.85,330.55 753.85,330.52 753.86,330.48 753.87,330.44 753.87,330.4 753.92,330.09 753.92,330.09 753.95,329.88 753.96,329.86 753.97,329.79 753.97,329.75 753.98,329.71 753.99,329.66 753.99,329.63 753.99,329.62 754,329.58 754,329.54 754.01,329.49 754.02,329.45 754.02,329.41 754.02,329.4 754.03,329.36 754.03,329.32 754.04,329.28 754.04,329.23 754.05,329.19 765.4,335.78 765.4,335.82 765.39,335.86 765.39,335.9 765.38,335.95 765.38,335.98 765.38,335.99 765.37,336.03 765.36,336.08 765.36,336.12 765.35,336.16 765.35,336.21 765.35,336.21 765.34,336.25 765.33,336.29 765.33,336.33 765.32,336.38 765.32,336.42 765.31,336.44 765.31,336.46 765.3,336.51 765.3,336.55 765.29,336.59 765.28,336.64 765.28,336.67 765.28,336.68 765.27,336.72 765.26,336.76 765.26,336.81 765.25,336.85 765.24,336.89 765.24,336.89 765.23,336.94 765.23,336.98 765.22,337.02 765.21,337.06 765.21,337.11 765.2,337.12 765.19,337.19 765.18,337.24 765.17,337.32 765.16,337.35 765.16,337.37 765.15,337.41 765.14,337.49 765.13,337.54 765.12,337.58 765.12,337.58 765.11,337.62 765.11,337.67 765.1,337.71 765.09,337.75 765.08,337.8 765.08,337.81 765.07,337.84 765.06,337.88 765.06,337.92 765.05,337.97 765.04,338.01 765.03,338.04 765.03,338.05 765.02,338.1 765.01,338.14 765.01,338.18 765,338.23 764.99,338.27 764.99,338.27 764.98,338.31 764.97,338.35 764.96,338.4 764.95,338.44 764.94,338.48 764.94,338.5 "/>
  <path class="fil21" d="M765.4 335.78l-11.35 -6.59 0 -0.02 0.01 -0.04 0.01 -0.06 0 -0.06 0.01 -0.06 0 0 0.01 -0.06 0.01 -0.06 0 -0.06 0.01 -0.05 0 -0.01 0.01 -0.06 0 -0.06 0.01 -0.06 0 -0.04 0.01 -0.02 0 -0.06 0.01 -0.06 0 -0.06 0.01 -0.02 0 -0.04 0.01 -0.07 0 -0.06 0.01 -0.06 0 0 0 -0.06 0.01 -0.06 0 -0.06 0.01 -0.05 0 -0.01 0 -0.06 0.01 -0.06 0 -0.06 0.01 -0.03 0 -0.03 0 -0.06 0.01 -0.06 0 -0.06 0 -0.02 0 -0.04 0.01 -0.06 0 -0.06 0.01 -0.06 0 0 0 -0.06 0 -0.06 0.01 -0.06 0 -0.05 0 -0.01 0 -0.06 0.01 -0.06 0 -0.06 0 -0.03 0 -0.03 0 -0.06 0.01 -0.06 0 -0.06 0 -0.01 0 -0.05 0 -0.06 0.01 -0.06 0 -0.06 0 -0.05 0 -0.06 0 -0.06 0 -0.05 0 -0.01 0.01 -0.06 0 -0.06 0 -0.06 0 -0.03 0 -0.03 0 -0.06 0 -0.06 0 -0.06 0 -0.01 0 -0.04 0 -0.06 0 -0.06 0 -0.06c-0.02,-6.25 -2.22,-10.63 -5.76,-12.67l11.35 6.59c1.99,1.17 3.56,3.06 4.56,5.6l0 0 0.08 0.22 0 0 0.08 0.21 0 0c0.08,0.22 0.15,0.44 0.22,0.67l0 0 0.07 0.23 0 0 0.06 0.23 0 0 0.06 0.23 0.01 0 0.05 0.24 0 0 0.06 0.24 0 0 0.05 0.24 0.01 0 0.05 0.25 0 0 0.04 0.25 0 0 0.05 0.25 0 0 0.04 0.25 0 0 0.04 0.26 0 0 0.04 0.26 0 0 0.03 0.26 0 0 0.03 0.26 0.03 0.27 0.02 0.27 0.02 0.28 0.02 0.27 0.02 0.28 0.01 0.28 0.01 0.29 0 0.28 0 0.29 0 0.06 0 0.06 0 0.06 0 0.04 0 0.02 0 0.06 0 0.06 0 0.05 0 0.03 0 0.03 0 0.06 0 0.06 0 0.06 0 0.02 0 0.04 0 0.06 -0.01 0.06 0 0.06 0 0 0 0.06 0 0.06 0 0.1 -0.01 0.02 0 0.06 0 0.11 0 0.03 -0.01 0.03 0 0.06 0 0.06 -0.01 0.06 0 0.02 0 0.04 0 0.06 0 0.06 -0.02 0.18 0 0.06 0 0.04 0 0.02 -0.01 0.06 0 0.06 -0.01 0.06 0 0.03 0 0.03 -0.01 0.07 0 0.06 -0.01 0.06 0 0 0 0.06 -0.01 0.06 0 0.06 -0.01 0.05 0 0.01 0 0.06 -0.01 0.06 -0.01 0.06 0 0.06 -0.01 0.06 0 0.06 -0.01 0.06 0 0.02 -0.01 0.04 0 0.06 -0.02 0.12 0 0.01 0 0.05 -0.01 0.06 -0.01 0.06 0 0.05 0 0.01 -0.01 0.06 -0.01 0.07 -0.01 0.06 0 0.03 -0.01 0.03z"/>
  <path class="fil22" d="M745.8 303.28l-11.35 -6.59c0.74,-0.43 1.49,-0.83 2.22,-1.2l0.03 -0.01 0.05 -0.03 0.07 -0.04 0.08 -0.03 0.15 -0.08 0.08 -0.04 0.01 0 0.06 -0.03 0.08 -0.04 0.07 -0.04 0.08 -0.03 0.08 -0.04 0.07 -0.03 0.01 -0.01 0.07 -0.03 0.07 -0.04 0.08 -0.03 0.07 -0.04 0.23 -0.1 0.07 -0.03 0.08 -0.04 0.07 -0.03 0.08 -0.03 0.06 -0.03 0.01 -0.01 0.08 -0.03 0.07 -0.04 0.08 -0.03 0.07 -0.03 0.08 -0.03 0.05 -0.03 0.02 -0.01 0.08 -0.03 0.07 -0.03 0.08 -0.03 0.07 -0.03 0.08 -0.03 11.35 6.58 -0.4 0.17 -0.05 0.02 -0.15 0.07 -0.07 0.03 -0.08 0.03 -0.07 0.03 -0.02 0.01 -0.06 0.03 -0.07 0.03 -0.08 0.03 -0.07 0.04 -0.08 0.03 -0.07 0.04 -0.01 0 -0.07 0.03 -0.07 0.04 -0.08 0.03 -0.07 0.04 -0.08 0.03 -0.07 0.04 -0.01 0 -0.07 0.03 -0.3 0.15 -0.06 0.03 -0.02 0.01 -0.08 0.03 -0.22 0.12 -0.08 0.03 -0.05 0.03c-0.74,0.37 -1.5,0.78 -2.25,1.22z"/>
  <path class="fil23" d="M750.66 300.86l-11.35 -6.58 0.04 -0.02 0.02 -0.01 0.07 -0.03 0.06 -0.02 0.07 -0.03 0.06 -0.03 0.07 -0.02 0.06 -0.03 0.02 -0.01 0.05 -0.02 0.06 -0.02 0.07 -0.03 0.13 -0.05 0.06 -0.02 0.07 -0.03 0 0 0.06 -0.02 0.07 -0.03 0.06 -0.02 0.07 -0.03 0.06 -0.02 0.07 -0.02 0.04 -0.02 0.02 -0.01 0.06 -0.02 0.07 -0.03 0.06 -0.02 0.07 -0.02 0.06 -0.03 0.07 -0.02 0.02 -0.01 0.04 -0.01 0.06 -0.02 0.07 -0.03 0.06 -0.02 0.07 -0.02 0.06 -0.02 0.06 -0.02 0.01 -0.01 0.06 -0.01 0.06 -0.03 0.07 -0.02 0.06 -0.02 0.06 -0.02 0.07 -0.02 0.05 -0.02 0.01 0 0.07 -0.02 0.06 -0.02 0.06 -0.02 0.07 -0.02 0.06 -0.02 0.06 -0.02 0.03 -0.01 0.04 -0.01 0.06 -0.02 0.06 -0.02 0.07 -0.02c0.27,-0.08 0.55,-0.16 0.82,-0.24l11.35 6.58 -0.82 0.24 -0.06 0.02 -0.07 0.02 -0.06 0.02 -0.03 0.01 -0.03 0.01 -0.07 0.02 -0.06 0.02 -0.06 0.02 -0.07 0.02 -0.06 0.02 -0.06 0.02 -0.02 0.01 -0.05 0.01 -0.06 0.02 -0.07 0.02 -0.06 0.02 -0.06 0.03 -0.07 0.02 -0.06 0.02 0 0 -0.07 0.02 -0.06 0.02 -0.06 0.03 -0.07 0.02 -0.06 0.02 -0.07 0.02 -0.04 0.02 -0.02 0 -0.06 0.03 -0.07 0.02 -0.06 0.02 -0.07 0.03 -0.15 0.05 -0.04 0.02 -0.07 0.02c-0.41,0.16 -0.82,0.32 -1.23,0.49z"/>
  <path class="fil24" d="M754.76 299.44l-11.35 -6.58c1.05,-0.28 2.08,-0.5 3.08,-0.65l11.3 6.59c-0.9,0.14 -1.81,0.33 -2.74,0.57l-0.05 0.01 -0.02 0.01 -0.03 0.01 -0.19 0.04z"/>
  <path class="fil25" d="M757.79 298.8l-11.3 -6.59c0.88,-0.14 1.75,-0.22 2.59,-0.26l11.34 6.58c-0.5,0.02 -1.01,0.06 -1.53,0.12l-0.04 0.01 -0.04 0 -0.04 0.01 -0.04 0c-0.32,0.04 -0.63,0.08 -0.94,0.13z"/>
  <path class="fil26" d="M760.42 298.53l-11.34 -6.58c0.65,-0.03 1.28,-0.03 1.9,0l0.04 0 0.01 0 0.35 0.03 11.32 6.57c-0.67,-0.04 -1.36,-0.05 -2.06,-0.02l-0.02 0 -0.02 0 -0.18 0z"/>
  <path class="fil27" d="M762.7 298.55l-11.32 -6.57c0.49,0.03 0.98,0.08 1.46,0.14l0.03 0 0.03 0c0.22,0.03 0.43,0.07 0.64,0.11l11.25 6.56c-0.68,-0.11 -1.38,-0.19 -2.09,-0.24z"/>
  <path class="fil27" d="M764.79 298.79l-11.25 -6.56c0.67,0.11 1.32,0.27 1.96,0.45l11.21 6.54c-0.62,-0.17 -1.26,-0.32 -1.92,-0.43z"/>
  <path class="fil28" d="M766.71 299.22l-11.21 -6.54c0.17,0.05 0.34,0.1 0.51,0.16l0.02 0.01 0.03 0.01 0.03 0.01 0 0c0.41,0.14 0.81,0.28 1.2,0.45l11.34 6.57c-0.62,-0.26 -1.26,-0.48 -1.92,-0.67z"/>
  <path class="fil16" d="M768.63 299.89l-11.34 -6.57c0.38,0.15 0.75,0.33 1.11,0.51l0.03 0.01 0.03 0.01 0.02 0.02 0.03 0.01c0.25,0.12 0.49,0.26 0.73,0.4l3.62 2.1 6.99 4.08c-0.4,-0.21 -0.8,-0.4 -1.22,-0.57z"/>
  <path class="fil17" d="M769.85 300.46l-6.99 -4.08 7.73 4.48c-0.24,-0.14 -0.49,-0.28 -0.74,-0.4z"/>
  <path class="fil21" d="M699.73 358.18c-0.01,-0.43 -0.02,-0.87 -0.02,-1.32l0 -0.31 0 -0.1 0 -0.11 0 -0.1 0.01 -0.63 0 -0.11 0.01 -0.1 0 -0.11 0 -0.1 0.01 -0.11 0 -0.1 0.02 -0.42 0 -0.11 0.01 -0.11 0 -0.1 0.01 -0.11 0 -0.1 0.01 -0.11 0.03 -0.53 0.01 -0.11 0.01 -0.1 0.01 -0.11 0 -0.11 0.04 -0.43 0.01 -0.1 0.01 -0.11 0 -0.11 0.01 -0.1 0.01 -0.11 0.01 -0.11 0.01 -0.11 0.05 -0.42 0.01 -0.11 0.01 -0.11 0.01 -0.11 0.02 -0.1 0.01 -0.11 0.01 -0.11 0.04 -0.32 0.01 -0.11 0.03 -0.21 11.35 6.58 -0.01 0.11 0 0 -0.1 0.87 -0.02 0.11 -0.01 0.11 -0.07 0.75 -0.01 0.11 -0.01 0.11 -0.01 0.1 -0.01 0.11 -0.04 0.53 -0.01 0.11 -0.01 0.11 -0.01 0.1 0 0.11 -0.04 0.53 0 0 0 0.1 -0.01 0.11 -0.01 0.1 0 0.11 -0.01 0.1 0 0.11 -0.01 0.1 0 0.11 0 0 0 0.1 -0.01 0.11 0 0.1 -0.02 0.53 0 0.1 0 0.11 0 0 0 0.1 -0.01 0.1 0 0.11 0 0.72 0 0.03 0 0.02 0 0.02 0 0.03 0 0.02 0 0.04 0 0.03 0 0.02 0 0.02 0 0.02 0 0.07 0 0.03 0 0.02 0 0.07 0 0.02 0 0.02 0 0.03 0 0.01 0 0.01 0 0.02 0 0.02 0 0.03 0 0.02 0 0.02 0.01 0.02 0 0.03 0 0.04 0 0.03 0 0.04 0 0.02 0 0.03 0 0.02 0 0.02 0 0.02 0 0.03 0 0.02 0 0.02 0 0.02 0 0.02 0 0.01 0 0.02 0 0.02 0 0.02 0 0.03 0.01 0.02 0 0.02 0 0.02 0 0.03 0 0.02 0 0.02 0 0.02 0 0.03 0 0.02 0 0.02 0 0.02 0 0.03 0 0.02 0 0.02 0.01 0.02 -11.36 -6.71z"/>
  <path class="fil6" d="M711.5 356.65l-11.35 -6.58 0.02 -0.15 0.01 -0.08 0.01 -0.07 0.01 -0.07 0.01 -0.08 0.04 -0.3 0.01 -0.07 0.01 -0.08 0.02 -0.07 0.01 -0.08 0.01 -0.07 0.01 -0.08 0.01 -0.07 0.14 -0.91 0.02 -0.07 0.01 -0.08 0.12 -0.68 0.01 -0.08 0.02 -0.07 0.01 -0.08 0.02 -0.07 0.01 -0.08 0.01 -0.08 0.02 -0.07 0.01 -0.08 0.02 -0.07 0.01 -0.08 0.02 -0.07 0 -0.01 0.01 -0.07 0.02 -0.08 0.17 -0.84 11.35 6.62c-0.28,1.29 -0.5,2.56 -0.69,3.83l-0.01 0.08 -0.08 0.52 0 0.07 -0.02 0.08 -0.01 0.07 -0.01 0.08 -0.01 0.07z"/>
  <path class="fil20" d="M712.33 351.85l-11.35 -6.62 0.01 -0.06 0.01 -0.03 0.01 -0.03 0.01 -0.06 0.22 -0.99 0 -0.01 0.02 -0.07c0.08,-0.33 0.15,-0.66 0.24,-1l0 -0.01 0.01 -0.05c0.14,-0.56 0.3,-1.12 0.45,-1.68l11.35 6.62c-0.37,1.33 -0.7,2.66 -0.98,3.99z"/>
  <path class="fil19" d="M713.31 347.86l-11.35 -6.62 0.09 -0.33 0.02 -0.06 0.01 -0.05 0 -0.01 0.02 -0.05 0.02 -0.05 0.01 -0.06 0.02 -0.05 0.01 -0.06 0.02 -0.05 0.02 -0.06 0.01 -0.05 0.02 -0.06 0.01 -0.05 0.02 -0.06c0.21,-0.69 0.42,-1.39 0.65,-2.1l0.02 -0.06 0.02 -0.05 0.02 -0.06 0.02 -0.06 0.02 -0.05 0.01 -0.06 0.02 -0.06 11.36 6.59 -0.13 0.39 -0.02 0.06 -0.02 0.05 -0.02 0.06 -0.01 0.06 -0.02 0.05c-0.31,0.97 -0.6,1.94 -0.87,2.91z"/>
  <path class="fil18" d="M714.4 344.28l-11.36 -6.59 0.02 -0.05 0.02 -0.05 0.03 -0.1 0.02 -0.05 0.02 -0.05 0.03 -0.1 0.02 -0.06 0.02 -0.05 0.01 -0.05 0.02 -0.05 0.02 -0.05 0.02 -0.05 0.01 -0.05 0.02 -0.06 0.02 -0.05 0.02 -0.05 0.16 -0.46 0.02 -0.06 0.04 -0.1 0.02 -0.05 0.01 -0.05 0.02 -0.05 0.02 -0.06 0.02 -0.05 0.02 -0.05 0.02 -0.05 0.01 -0.05 0.02 -0.06 0.02 -0.05 0.02 -0.05 0.02 -0.05 0.02 -0.05 0.02 -0.05 0.02 -0.06 0.02 -0.05 0.02 -0.05 0.01 -0.05 0.02 -0.05 0.02 -0.05 0.02 -0.05 0.02 -0.06 0.02 -0.05 0.02 -0.05 0.02 -0.05 0.02 -0.05 0.02 -0.05 0.02 -0.05 0.02 -0.05 0.02 -0.06 0.02 -0.05 0.06 -0.15 11.35 6.58 -0.02 0.06 -0.02 0.05 -0.02 0.05 -0.02 0.05 -0.02 0.06 -0.02 0.05 -0.02 0.05 -0.02 0.05c-0.25,0.65 -0.48,1.31 -0.71,1.96l-0.02 0.05 -0.01 0.05 -0.02 0.05 -0.02 0.06 -0.02 0.05 -0.01 0.05 -0.02 0.05 -0.02 0.05 -0.02 0.05 -0.02 0.05 -0.01 0.05 -0.02 0.05 -0.02 0.05 -0.02 0.05 -0.01 0.04 0 0.01 -0.02 0.05 -0.02 0.06 -0.01 0.05z"/>
  <path class="fil17" d="M715.58 340.98l-11.35 -6.58c0.4,-1.04 0.82,-2.08 1.28,-3.12l11.35 6.58 -0.29 0.68 -0.02 0.05 -0.02 0.05 -0.02 0.05 -0.01 0.02 -0.02 0.03 -0.02 0.05 -0.02 0.05 -0.02 0.04 -0.02 0.05 -0.02 0.05 -0.02 0.05 -0.02 0.05 -0.02 0.05 -0.02 0.05 -0.02 0.05 -0.02 0.05 -0.02 0.04 -0.02 0.05 -0.02 0.05 -0.02 0.05 -0.02 0.05 -0.02 0.05 -0.02 0.05 -0.16 0.39 -0.02 0.05 -0.01 0.05 -0.02 0.04 -0.02 0.05 -0.02 0.05 -0.02 0.05 -0.02 0.05 -0.02 0.05 -0.02 0.05 -0.02 0.05 -0.02 0.05 -0.02 0.04 -0.02 0.05 -0.02 0.05 -0.02 0.05 -0.01 0.05 -0.02 0.05 -0.01 0.02 -0.01 0.03 -0.02 0.05 -0.02 0.04z"/>
  <path class="fil16" d="M716.86 337.86l-11.35 -6.58 0.21 -0.49 0.02 -0.05 0.02 -0.05 0.02 -0.04 0.02 -0.05 0.28 -0.63 0.02 -0.04 0.37 -0.8 0.02 -0.05 0.02 -0.05 0.02 -0.04 0.03 -0.05 0.01 -0.03 0.01 -0.02 0.02 -0.05 0.02 -0.04 0.03 -0.05 0.02 -0.05 0.02 -0.04 0.02 -0.05 0.03 -0.05 0.02 -0.04 0.05 -0.1 0.02 -0.04 0.02 -0.05 0.05 -0.1 11.35 6.59 -0.21 0.43 -0.02 0.05 -0.02 0.05c-0.34,0.71 -0.66,1.42 -0.97,2.13l-0.03 0.05 -0.04 0.09 0 0.01 -0.02 0.04 -0.02 0.05 -0.02 0.05 -0.02 0.04 -0.02 0.05z"/>
  <path class="fil28" d="M718.25 334.82l-11.35 -6.59 0.27 -0.56 0.02 -0.04 0.02 -0.05 0.03 -0.05 0.02 -0.05 0.02 -0.04 0.03 -0.05 0.02 -0.04 0.05 -0.1 0.02 -0.05 0.02 -0.04 0.03 -0.05 0.02 -0.04 0.02 -0.05 0.03 -0.05 0.02 -0.04 0.02 -0.05 0.03 -0.05 0.01 -0.03 0.01 -0.01 0.02 -0.05 0.03 -0.05 0.02 -0.04 0.02 -0.05 0.03 -0.05 0.02 -0.04 0.1 -0.19 0.02 -0.04 0.02 -0.05 0.03 -0.04 0.02 -0.05 0.03 -0.05 0.02 -0.04 0.02 -0.05 0.03 -0.04 0.36 -0.68 11.35 6.58 -0.02 0.05 -0.02 0.04 -0.42 0.79 -0.02 0.05 -0.02 0.04 -0.03 0.05 -0.02 0.05 -0.03 0.04 -0.02 0.05 -0.02 0.04 -0.03 0.05 -0.02 0.04 -0.02 0.05 -0.03 0.05 -0.02 0.04 -0.03 0.05 -0.02 0.04 0 0.01 -0.02 0.04c-0.24,0.46 -0.47,0.92 -0.69,1.39z"/>
  <polygon class="fil27" points="719.75,331.86 708.4,325.28 709,324.15 709.03,324.11 709.05,324.06 709.13,323.92 709.16,323.87 709.31,323.6 709.34,323.55 709.36,323.5 709.39,323.46 709.41,323.41 709.44,323.37 709.47,323.32 709.49,323.27 709.52,323.23 709.54,323.18 709.57,323.14 709.72,322.86 709.75,322.82 709.78,322.77 709.8,322.72 709.83,322.68 709.85,322.65 709.86,322.63 709.88,322.59 709.91,322.54 709.94,322.5 709.96,322.45 709.99,322.41 710.02,322.36 710.04,322.32 721.4,328.9 721.2,329.25 721.19,329.27 721.13,329.37 721.11,329.41 721.08,329.46 721,329.6 720.97,329.64 720.95,329.69 720.92,329.74 720.9,329.78 720.87,329.83 720.84,329.88 720.82,329.92 720.79,329.97 720.77,330.01 720.74,330.06 720.71,330.1 720.69,330.15 720.66,330.2 720.64,330.24 720.61,330.29 720.59,330.33 720.56,330.38 720.53,330.43 720.51,330.47 720.08,331.25 720.05,331.3 720.05,331.31 720.03,331.35 720,331.39 719.98,331.44 719.95,331.49 719.85,331.67 719.83,331.72 719.8,331.77 719.78,331.81 "/>
  <path class="fil27" d="M721.4 328.9l-11.36 -6.58 0.03 -0.05 0.03 -0.04 0.02 -0.05 0.03 -0.05 0.03 -0.05 0.03 -0.04 0.02 -0.05 0.03 -0.05 0.03 -0.04 0.03 -0.05 0.02 -0.05 0.03 -0.04 0.03 -0.05 0.03 -0.05 0.05 -0.09 0.03 -0.05 0.03 -0.04 0.03 -0.05c0.41,-0.7 0.84,-1.39 1.28,-2.07l11.35 6.58c-0.62,1 -1.22,1.96 -1.8,2.96z"/>
  <path class="fil26" d="M723.2 325.94l-11.35 -6.58 0.09 -0.14 0.03 -0.05 0.03 -0.05 0.03 -0.04 0.03 -0.05c0.59,-0.9 1.19,-1.82 1.81,-2.67l11.35 6.58 -0.1 0.14 -0.03 0.05 -0.03 0.05 -0.16 0.23 -0.03 0.05 -0.04 0.05 -0.06 0.09 -0.03 0.05 -0.04 0.04 -0.03 0.05 -0.03 0.05 -0.03 0.04 -0.03 0.05 -0.03 0.05 -0.38 0.56 -0.04 0.05 -0.03 0.04 -0.03 0.05 -0.03 0.05c-0.28,0.42 -0.57,0.84 -0.84,1.26z"/>
  <path class="fil25" d="M725.22 322.94l-11.35 -6.58c0.75,-1.08 1.53,-2.13 2.33,-3.17l11.35 6.59c-0.8,1.04 -1.57,2.08 -2.33,3.16z"/>
  <path class="fil24" d="M727.55 319.78l-11.35 -6.59c0.81,-1.04 1.65,-2.08 2.51,-3.08l0.05 -0.06 0.04 -0.05 0.23 -0.26 11.34 6.61 -0.53 0.63 -0.05 0.05 -0.04 0.05 -0.05 0.05c-0.73,0.86 -1.45,1.75 -2.15,2.65z"/>
  <path class="fil23" d="M730.37 316.35l-11.34 -6.61c0.35,-0.4 0.69,-0.79 1.05,-1.18l0.05 -0.06 0.01 -0.01 0.05 -0.06 0.42 -0.45 0.06 -0.06 0.05 -0.06 0.01 -0.01c0.69,-0.74 1.39,-1.45 2.1,-2.16l11.36 6.59c-0.59,0.58 -1.18,1.18 -1.76,1.8l-0.06 0.06 -0.06 0.07 -0.05 0.06 -0.01 0 -0.18 0.19 -0.05 0.07 -0.06 0.06c-0.54,0.58 -1.07,1.17 -1.59,1.76z"/>
  <path class="fil22" d="M734.19 312.28l-11.36 -6.59c1.08,-1.06 2.19,-2.08 3.31,-3.05l0.18 -0.15 0.49 -0.42 0.4 -0.33 0.18 -0.15 0.04 -0.04 0.04 -0.03c2.26,-1.83 4.59,-3.45 6.98,-4.83l11.35 6.59 -0.73 0.43 -0.41 0.25 -0.19 0.12c-1.45,0.9 -2.88,1.89 -4.28,2.96l-0.18 0.14 -0.18 0.14 -0.29 0.23 -0.62 0.49 -0.13 0.11 -0.05 0.04c-1.55,1.26 -3.08,2.63 -4.55,4.09z"/>
  <path class="fil7" d="M762.31 346.57c2.12,-4.85 3.36,-9.94 3.34,-14.63 -0.03,-12.5 -8.91,-17.58 -19.8,-11.29 -10.89,6.29 -19.71,21.58 -19.67,34.08 0,0.82 0.04,1.6 0.11,2.34l-14.34 8.33 -0.86 -0.51c-0.02,-0.47 -0.03,-0.96 -0.03,-1.45 -0.06,-22.08 15.52,-49.04 34.74,-60.16 19.22,-11.09 34.91,-2.13 34.97,19.95 0.03,9.51 -2.85,19.92 -7.66,29.58l-10.8 -6.24z"/>
  <path class="fil29" d="M124.07 964.4c-28.9,0 -57.77,-6.37 -79.75,-19.17 -43.96,-25.54 -43.73,-66.95 0.51,-92.49 22.12,-12.75 51.06,-19.13 79.96,-19.13 28.9,0 57.77,6.38 79.75,19.13 43.96,25.54 43.72,66.95 -0.52,92.54 -22.12,12.75 -51.05,19.12 -79.95,19.12z"/>
  <path class="fil30" d="M227.66 359.28l-15.28 -10.42c-1.48,-1 -1.67,-3.13 -0.38,-4.38l39.88 -38.79c0.91,-0.91 2.28,-1.08 3.38,-0.46l20.12 11.25c1.66,0.92 1.96,3.17 0.6,4.5l-21.91 21.46 -26.41 16.84z"/>
  <path class="fil7" d="M231.06 357.57l-14.89 -10.17c-1.11,-0.75 -1.25,-2.33 -0.29,-3.29l36.96 -36.13c0.68,-0.66 1.73,-0.79 2.56,-0.29l16.83 9.79c1.21,0.67 1.42,2.34 0.42,3.34l-18.13 17.96 -23.46 18.79z"/>
  <path class="fil31" d="M214.69 371.44c0,0 10.38,-9.58 15.96,-18.37 5.59,-8.75 11.98,-11.17 16.5,-16.21 4.53,-5.04 3.72,-13.29 6.39,-13.29 2.66,0 4.26,4.5 3.99,7.71 -0.27,3.16 -3.46,11.16 -3.46,11.16l18.63 -18.87c0,0 1.33,10.37 0,16.75 -1.34,6.37 -5.06,14.87 -9.85,17.04 -4.79,2.12 -20.49,8.75 -20.49,8.75l-22.61 32.46 -7.72 -13.54 2.66 -13.59z"/>
  <path class="fil31" d="M135.4 277.23c1.86,-15.66 8.78,-24.2 8.78,-24.2 0,0 18.09,10.91 21.02,8.54 2.93,-2.42 27.67,-50.59 27.4,-69.21 -0.26,-18.63 -33.85,-50.29 -62.16,-36.96 -28.3,13.29 -24.31,118.67 -24.31,118.67l29.27 3.16z"/>
  <path class="fil31" d="M120.23 812.07l0.11 -1.04c-1.45,3.79 -1.89,6.87 -1.89,6.87l-0.12 -6.29c-6.31,4.54 -18.64,7 -24.54,2.67 -0.53,-0.42 -0.97,-0.88 -1.39,-1.38l-0.18 0.09c1.36,7.99 -3.01,18.08 -6.87,27.45 0,0 12,8.09 22.78,3.34l-0.67 5.79c4.43,1.29 10.09,4.29 12.24,11.21 3.73,11.95 9.58,38.29 16.5,42.04 6.92,3.71 11.7,-2.17 11.31,-11.5 -4.09,-2.34 -7.06,-6.17 -7.06,-14.58 0,-15.17 10.69,-52.05 10.69,-52.05 -9.51,0.88 -27.54,-4.2 -30.91,-12.62z"/>
  <path class="fil2" d="M97.64 876.23c-7.15,-9.54 -4.02,-12 3.97,-27.7 0,0 2.59,0.04 5.85,1.04l0.67 -5.79c-10.78,4.75 -22.78,-3.34 -22.78,-3.34 -4.76,4.75 -9.55,13.34 -4.76,30.88 4.78,17.58 5.38,32.54 6.58,37.54 1.2,5 8.58,4.17 9.78,2.38 0.83,-1.21 2.6,-11.46 4.27,-18.8 -0.32,-7 -1.26,-13.12 -3.58,-16.21z"/>
  <path class="fil30" d="M136.2 902.82c-6.92,-3.75 -12.77,-30.09 -16.5,-42.04 -2.15,-6.92 -7.81,-9.92 -12.24,-11.21 -3.26,-1 -5.85,-1.04 -5.85,-1.04 -7.99,15.7 -11.12,18.16 -3.97,27.7 2.32,3.09 3.26,9.21 3.58,16.21 0.65,14.63 -1.5,32.88 0.12,34.29 2.4,2.13 7.99,3.21 10.64,0 2.67,-3.16 4.26,-14.62 5.59,-13.54 1.33,1.05 6.39,12.75 13.04,12.21 6.65,-0.5 26.87,-5.29 30.86,-8.5 4,-3.21 5.86,-15.96 4,-18.62 -1.87,-2.67 -17.89,-6.96 -17.96,-6.96 0.39,9.33 -4.39,15.21 -11.31,11.5z"/>
  <path class="fil7" d="M114.38 758.86c0,-25.83 -2.66,-66 5.85,-93.42 8.52,-27.37 -5.19,-76.62 -15.3,-89.91 -5.35,-7.04 -12.11,-16.38 -17.1,-25.21 -9.58,-0.63 -23.61,-17.25 -23.61,-17.25 12.38,9.21 18.03,8.29 18.26,5.96 -1.19,-3.46 -1.8,-6.59 -1.49,-9.13 1.21,2.79 7.86,10.5 16.83,20.63 9.66,8.7 24.23,13.29 47.82,7.7 -12.77,8.5 -29.02,7.21 -28.54,13.92 12.97,14.71 26.48,30.54 35.06,43 21.29,31.04 -4.11,72.75 -4.23,72.92 -0.33,1.25 -15.03,55.71 -20.42,79.5 -0.62,2.96 -1.22,5.91 -1.79,8.83 -2.03,13.54 -3.92,35.79 6.26,41.79 10.18,6 22.05,-21.04 22.05,-21.04 0,0 34.32,-104.29 37.24,-133.83 2.93,-29.54 -19.95,-104.04 -24.21,-123.17 -4.26,-19.17 -22.09,-7.46 -51.35,-11.71 -29.27,-4.29 -46.35,-26.66 -53.75,-24.75 -7.23,1.88 -3.89,24.75 -3.74,25.8 7.61,38.2 23.53,89.37 24.23,113.37 1.06,36.17 -8.52,57.46 -6.39,88.33 2.13,30.84 11.18,68.09 14.9,79.29 0.32,0.96 0.84,1.71 1.44,2.42 0.42,0.5 0.86,0.96 1.39,1.38 21.11,10.08 20.59,-29.67 20.59,-55.42z"/>
  <path class="fil32" d="M147.91 688.15c-4.62,14.46 -13.76,47.75 -20.4,79.42 5.39,-23.79 20.09,-78.25 20.4,-79.42z"/>
  <path class="fil32" d="M141.52 618.36c8.23,20.21 13.26,51.08 8.23,64.37 -0.48,1.26 -1.1,3.09 -1.82,5.34 0.12,-0.17 25.52,-41.88 4.23,-72.92 -8.58,-12.46 -22.09,-28.29 -35.06,-43 -0.48,-6.71 15.77,-5.42 28.54,-13.92 -23.59,5.59 -38.16,1 -47.82,-7.7 -8.97,-10.13 -15.62,-17.84 -16.83,-20.63 -0.31,2.54 0.3,5.67 1.51,9.13 -0.25,2.33 -5.9,3.25 -18.28,-5.96 0,0 14.03,16.62 23.61,17.25 4.99,8.83 11.75,18.17 17.1,25.21 10.11,13.29 23.82,62.54 15.3,89.91 -8.51,27.42 -5.85,67.59 -5.85,93.42 0,25.75 0.52,65.5 -20.59,55.42 5.9,4.33 18.23,1.87 24.54,-2.67 0.82,-0.63 1.55,-1.25 2.14,-1.92 0.73,-7 1.9,-14.91 3.38,-23.29 1.13,-26.92 1.63,-71.04 5.43,-86.62 5.32,-21.79 12.24,-81.42 12.24,-81.42z"/>
  <path class="fil32" d="M121.92 807.53c0.92,-2.25 1.47,-10.34 1.93,-21.13 -1.48,8.38 -2.65,16.29 -3.38,23.29 0.63,-0.71 1.16,-1.41 1.45,-2.16z"/>
  <path class="fil32" d="M197.4 708.82c11.17,-28.21 14.35,-49.46 11.16,-66.5 -3.18,-17.04 -23.69,-157.46 -23.69,-157.46l-52.89 -4.87 -75.86 6.54c-3.49,7.5 -1.77,23.58 2.1,42.96 -0.15,-1.05 -3.49,-23.92 3.74,-25.8 7.4,-1.91 24.48,20.46 53.75,24.75 29.26,4.25 47.09,-7.46 51.35,11.71 4.26,19.13 27.14,93.63 24.21,123.17 -2.92,29.54 -37.24,133.83 -37.24,133.83 0,0 -11.87,27.04 -22.05,21.04 -10.18,-6 -8.29,-28.25 -6.26,-41.79 -0.67,3.38 -1.29,6.71 -1.87,10 -0.46,10.79 -1.01,18.88 -1.93,21.13 -0.29,0.75 -0.82,1.45 -1.45,2.16 -0.04,0.46 -0.09,0.92 -0.13,1.34l-0.11 1.04c3.37,8.42 21.4,13.5 30.89,12.62 2.48,-0.25 4.41,-0.87 5.3,-2 4.25,-5.29 29.8,-85.66 40.98,-113.87z"/>
  <path class="fil33" d="M214.69 371.44l-13.17 9.17c9.58,13.58 8.38,27.96 2.39,34.33 -0.34,0.38 -0.73,0.79 -1.13,1.25l16.97 -17.62c0,0 2.65,-18.34 -5.06,-27.13z"/>
  <path class="fil33" d="M71.27 267.19c2.13,6.34 15.11,14.75 77,22.38l0.13 -0.46 4.82 -17.46c0,0 -42.83,-3.96 -58.27,-8.25 -15.43,-4.25 -10.64,-18.62 -10.64,-18.62 0,0 -10.38,3.45 -13.04,5.33 -1.2,0.83 -1.72,3.17 -1.77,6 -0.05,3.42 0.61,7.58 1.77,11.08z"/>
  <path class="fil7" d="M180.77 472.82c-5.6,-10.38 -19.96,-10.38 -31.02,-27.92 -11.06,-17.58 -20.07,-81.46 -22.78,-95.79 -2.7,-14.38 8.26,-33.54 22.78,-41.92 0,0 -13.69,17.96 -14.48,33.5 -0.8,15.59 11.62,81.84 35.92,81.84 14.76,0 29.93,-13.96 37.04,-25.59 -0.73,-5.16 -2.82,-10.79 -6.71,-16.33l-14.37 8.37c-4.41,2.59 -13.7,-72.62 -24.61,-81.79 -10.91,-9.16 -16.79,-17.96 -16.79,-17.96 -59.7,-7.54 -72.38,-15.79 -74.48,-22.04l-0.07 -0.25c-17,3.5 -21.23,32.84 -15.89,50.5 5.8,19.17 20.14,72.88 15.16,95.38 -1.96,22.12 -9.52,47.91 -17.82,67.58 2,11.17 35.92,28.75 35.92,28.75 0,0 12.37,10.38 36.72,8.38 17.91,-1.46 41.2,-14.84 55.61,-28.63 0.8,-0.96 4.96,-6.66 -0.13,-16.08z"/>
  <path class="fil32" d="M192.34 474.4c0,0 -23.15,-25.12 -27.94,-40.29 18.42,5.25 31.87,-10.71 38.38,-17.92 0.4,-0.46 0.79,-0.87 1.13,-1.25 3.56,-3.79 5.4,-10.41 4.32,-18 -7.11,11.63 -22.28,25.59 -37.04,25.59 -24.3,0 -36.72,-66.25 -35.92,-81.84 0.79,-15.54 14.48,-33.5 14.48,-33.5 -14.52,8.38 -25.48,27.54 -22.78,41.92 2.71,14.33 11.72,78.21 22.78,95.79 11.06,17.54 25.42,17.54 31.02,27.92 5.09,9.42 0.93,15.12 0.13,16.08 5.17,-4.96 9.22,-9.96 11.44,-14.5z"/>
  <path class="fil32" d="M162.54 307.19c10.91,9.17 20.2,84.38 24.61,81.79l-2.4 -15.54c0,0 5.99,-8.37 5.99,-25.96 0,-17.54 -13.97,-24.33 -13.97,-24.33 0,0 -3.19,-12.79 -11.97,-23.17 -2.09,-2.45 -8.13,-6.37 -16.4,-10.87l-0.13 0.46c-0.86,-0.13 -1.68,-0.21 -2.52,-0.34 0,0 5.88,8.8 16.79,17.96z"/>
  <path class="fil32" d="M55.31 317.44c-5.34,-17.66 -1.11,-47 15.89,-50.5 -1.11,-3.41 -1.75,-7.5 -1.7,-10.83 -9.52,-0.71 -18.23,7.58 -21.13,17.25 -1.95,6.5 -3.35,14.58 -2.9,23.83 1.19,25.17 22.74,72.25 25.14,97 0.55,5.71 0.44,12 -0.14,18.63 4.98,-22.5 -9.36,-76.21 -15.16,-95.38z"/>
  <path class="fil34" d="M195 182.53c-0.67,26.95 -34.59,52.66 -37.25,52.16 -2.66,-0.54 -3.46,-1.87 -2.4,-5.58 1.07,-3.75 -6.12,-11.46 -14.9,1.83 -8.77,13.34 -8.51,45.38 -15.96,58.63 -7.45,13.21 -56.41,3.12 -56.94,-5.67 -0.53,-8.79 19.16,-48.42 21.55,-70.79 2.4,-22.33 1.6,-69.96 50.55,-74.75 48.96,-4.79 55.5,38.25 55.35,44.17z"/>
  <path class="fil29" d="M467.73 860.24c-32.56,0 -65.08,-7.17 -89.85,-21.59 -49.52,-28.75 -49.27,-75.42 0.58,-104.21 24.92,-14.37 57.51,-21.58 90.07,-21.58 32.56,0 65.08,7.21 89.84,21.58 49.52,28.79 49.26,75.46 -0.59,104.21 -24.91,14.42 -57.5,21.59 -90.05,21.59z"/>
  <path class="fil35" d="M510.31 775.49c3.58,1.83 7.68,2.91 11.88,3.37 3.41,0.33 6.89,0.29 10.2,-0.13 -0.24,10.5 -1.04,32.42 -2.26,36.59 -1.5,5.12 -10.45,13.25 -18.12,14.92 -7.67,1.7 -14.28,-5.3 -15.34,-5.55 -0.74,-0.12 -2.5,-6.71 -3.49,-10.66l9.37 -45c2.03,2.75 4.7,4.87 7.76,6.46z"/>
  <path class="fil35" d="M439 730.57c3.7,1.42 7.73,2.21 11.78,2.5 -4.83,1.17 -9.68,1.96 -11.94,2.79 -5.39,1.96 -24.15,20.71 -28.7,23 -4.54,2.29 -19.04,6.54 -22.16,7.67 -2.38,0.87 -8.88,-1.71 -11.84,-3 0.88,-1.09 2.06,-2.42 3.31,-3.84 2.33,-2.54 35.35,-22.96 46.08,-40.08 3.03,5.29 7.86,8.83 13.47,10.96z"/>
  <path class="fil36" d="M496.67 824.69c1.06,0.25 7.67,7.25 15.34,5.55 7.67,-1.67 16.62,-9.8 18.12,-14.92 1.22,-4.17 2.02,-26.09 2.26,-36.59 5.2,-0.62 9.95,-2.12 13.42,-4.2 0.84,14.54 2.48,48.33 -0.41,50.54 -3.7,2.83 -30.69,13.08 -33.81,13.33 -3.13,0.29 -17.91,-5.96 -18.76,-6.5 -0.85,-0.58 0,-16.21 0,-16.21l0.35 -1.66c0.99,3.95 2.75,10.54 3.49,10.66z"/>
  <path class="fil36" d="M387.98 766.53c3.12,-1.13 17.62,-5.38 22.16,-7.67 4.55,-2.29 23.31,-21.04 28.7,-23 2.26,-0.83 7.11,-1.62 11.94,-2.79 11.85,0.79 23.9,-2.75 28.63,-8.29 0.79,6.95 2.06,15.33 2.06,15.33 0,0 -8.24,10.5 -15.92,13.08 -7.67,2.54 -25.57,6.5 -25.57,6.5 0,0 -16.2,12.25 -21.03,13.38 -4.83,1.12 -32.96,5.87 -35.23,5.79 -2.27,-0.13 -9.1,-12.04 -9.1,-12.92 0,-0.41 0.6,-1.29 1.52,-2.41 2.96,1.29 9.46,3.87 11.84,3z"/>
  <path class="fil37" d="M421.23 231.78c2.06,-35.3 16.66,-78.46 22.25,-93.92 1.74,0.04 3.68,-0.13 5.88,-0.46 0,0 1.7,11.08 7.1,22.75 0,0 44.61,-12.21 44.04,-26.12 0,0 -0.71,-3.05 -1.21,-7.67 12.86,1.42 24.8,21 24.8,21l-76.44 84.42 -26.42 0z"/>
  <path class="fil7" d="M437.7 464.48c3.98,3.96 11.94,65.92 18.76,99.46 6.82,33.5 11.94,126.71 10.23,143.75 -0.43,4.29 -1.42,7.34 -2.91,9.63l-35.73 -2.79c-0.58,1.66 -1.44,3.33 -2.52,5.08l-0.33 -0.54c0,0 -3.41,-105.13 -4.54,-126.71 -0.87,-16.46 -8.98,-109.33 -12.81,-152.71 9.75,12.21 26.45,21.42 29.85,24.83z"/>
  <path class="fil35" d="M463.78 717.32c-4.46,6.96 -13.38,7.21 -24.78,13.25 -5.61,-2.13 -10.44,-5.67 -13.47,-10.96 1.08,-1.75 1.94,-3.42 2.52,-5.08l35.73 2.79z"/>
  <path class="fil7" d="M463.78 717.32c-4.46,6.96 -13.38,7.21 -24.78,13.25 -5.61,-2.13 -10.44,-5.67 -13.47,-10.96 1.08,-1.75 1.94,-3.42 2.52,-5.08l35.73 2.79z"/>
  <path class="fil7" d="M476.35 478.69c0,0 26.2,6.04 49.44,-7.37 0,0 -5.11,76.12 -5.11,92.62 0,16.46 -1.14,22.17 7.39,53.42 8.52,31.25 9.52,132.12 7.81,144.92 -0.16,1.25 -0.43,2.45 -0.78,3.58l-30.62 -6.17 -1.93 9.34c-1.05,-1.42 -1.94,-3 -2.61,-4.75l-17.91 -195.25c0,0 0.01,0.7 0.01,2 -1.92,-12.55 -9.69,-66.34 -5.69,-92.34z"/>
  <path class="fil35" d="M535.1 765.86c-1.99,6.79 -6.83,12 -12.91,13 -4.2,-0.46 -8.3,-1.54 -11.88,-3.37 -3.06,-1.59 -5.73,-3.71 -7.76,-6.46l1.93 -9.34 30.62 6.17z"/>
  <path class="fil7" d="M535.1 765.86c-1.99,6.79 -6.83,12 -12.91,13 -4.2,-0.46 -8.3,-1.54 -11.88,-3.37 -3.06,-1.59 -5.73,-3.71 -7.76,-6.46l1.93 -9.34 30.62 6.17z"/>
  <path class="fil38" d="M478.77 454.11c48.58,7.25 67.48,-15.21 67.48,-15.21 0,0 -3.97,119.04 -4.55,134.42 -0.56,15.33 1.43,19.58 5.12,41.21 3.7,21.58 5.97,140.62 4.55,153.12 -0.3,2.67 -2.39,5 -5.56,6.88 -3.47,2.08 -8.22,3.58 -13.42,4.2 -3.31,0.42 -6.79,0.46 -10.2,0.13 6.08,-1 10.92,-6.21 12.91,-13 0.35,-1.13 0.62,-2.33 0.78,-3.58 1.71,-12.8 0.71,-113.67 -7.81,-144.92 -8.53,-31.25 -7.39,-36.96 -7.39,-53.42 0,-16.5 5.11,-92.62 5.11,-92.62 -23.24,13.41 -49.44,7.37 -49.44,7.37 -4,26 3.77,79.79 5.69,92.34 0.06,16.83 0.48,136.5 -0.57,149.2 -0.14,1.59 -0.87,3.13 -2.06,4.55 -4.73,5.54 -16.78,9.08 -28.63,8.29 -4.05,-0.29 -8.08,-1.08 -11.78,-2.5 11.4,-6.04 20.32,-6.29 24.78,-13.25 1.49,-2.29 2.48,-5.34 2.91,-9.63 1.71,-17.04 -3.41,-110.25 -10.23,-143.75 -6.82,-33.54 -14.78,-95.5 -18.76,-99.46 -3.4,-3.41 -20.1,-12.62 -29.85,-24.83 -1.19,-13.58 -1.97,-22.33 -1.97,-22.33 0,0 0.33,0.37 0.96,1.08 4.91,5.38 28.87,29.29 71.93,35.71z"/>
  <path class="fil31" d="M456.46 160.15c-5.4,-11.67 -7.1,-22.75 -7.1,-22.75 -2.2,0.33 -4.14,0.5 -5.88,0.46 -13.29,-0.08 -13.86,-9.13 -14.87,-12.67 -0.18,-0.62 -0.56,-2.66 -1.05,-5.66 -2.42,-15 -7.42,-54.88 -2.96,-72.38 15.93,11.04 52.89,11.29 52.89,11.29 0,7.09 6.54,10.5 6.54,15.88 0,5.41 -1.28,20.91 0,22.62 1.27,1.71 4.54,-0.29 5.25,-0.87 0.71,-0.54 1.28,-14.63 6.25,-17.17 4.97,-2.58 5.26,8 3.84,17.29 -1.42,9.25 0.07,12.38 0.07,12.38 -0.94,6.62 -0.66,13.04 -0.15,17.79 0.5,4.62 1.21,7.67 1.21,7.67 0.57,13.91 -44.04,26.12 -44.04,26.12z"/>
  <path class="fil34" d="M499.37 96.19c1.42,-9.29 1.13,-19.87 -3.84,-17.29 -4.97,2.54 -5.54,16.63 -6.25,17.17 -0.71,0.58 -3.98,2.58 -5.25,0.87 -1.28,-1.71 0,-17.21 0,-22.62 0,-5.38 -6.54,-8.79 -6.54,-15.88 0,0 -36.96,-0.25 -52.89,-11.29 -3.4,-2.37 -5.86,-5.17 -6.78,-8.62 9.66,1.7 7.38,-22.25 41.48,-30.67 34.12,-8.46 53.42,14.21 51.72,22.42 0,0 8.8,6.83 9.09,23.87 0.29,17.04 -8.81,38.08 -20.67,54.42 0,0 -1.49,-3.13 -0.07,-12.38z"/>
  <path class="fil7" d="M410.98 222.07c2.46,4 4.85,8.25 4.85,8.25 -4.27,-0.84 -40.64,0 -40.64,0 1.51,-2.63 2.96,-4.96 4.34,-7.04l30.61 -61.13 -3.15 42.17c5.32,-21.42 15.08,-56.25 23.19,-60.92 -9.09,19.92 -16.74,63.58 -19.2,78.67zm167.07 -29.38c-13.89,-16 -39.31,-38.83 -53.96,-45.33l-76.44 84.42 -26.42 0c2.06,-35.3 16.66,-78.46 22.25,-93.92 -13.29,-0.08 -13.86,-9.13 -14.87,-12.67 -0.18,-0.62 -0.56,-2.66 -1.05,-5.66 -11.52,0.25 -15.87,1.91 -21.68,4.83 -6.25,3.12 -56.83,100.87 -57.4,114.5 0,0 2.85,21.75 19.04,22.58 4.18,0.21 56.83,0.09 77.01,0.04 0.11,-2.79 1.59,-13.5 17.13,-20.62l6.47 2.83 51.99 -72.83c0,0 -29.15,73.04 -36.38,88.87l0 0.46c0,0 -0.34,0.54 -0.97,1.59 -0.32,0.62 -0.52,0.95 -0.6,0.95 -2.97,4.71 -9.92,15.21 -18.61,24.8 0,0 -3.56,-3 -7.6,-7.13l-32.52 -0.75c11.07,10.13 60.87,55.17 67.69,55.54 7.67,0.42 21.73,1.29 24.72,0 2.98,-1.29 61.37,-138.96 62.2,-142.5z"/>
  <path class="fil7" d="M427.62 429.4l5.54 -118.37c0,0 46.46,51.87 54.98,52.29 8.53,0.41 26,-4.25 27.71,-4.67 1.7,-0.46 35.95,74.13 35.95,74.13l2.31 -0.21c-1.71,2.04 -4.18,4.21 -7.86,6.33 0,0 -18.9,22.46 -67.48,15.21 -43.06,-6.42 -67.02,-30.33 -71.93,-35.71l-0.96 -1.08c0,0 -7.88,-2.42 -10.26,-5.92 -1.23,-11.17 7.42,-132.21 7.42,-132.21l18.19 33.42 6.39 116.79z"/>
  <path class="fil38" d="M367.52 261.44c4.18,0.21 56.83,0.09 77.01,0.04 -0.02,0.42 -0.01,0.67 -0.01,0.67 -0.65,4.79 5.85,12.54 11.44,18.25l-32.52 -0.75c11.07,10.13 60.87,55.17 67.69,55.54 7.67,0.42 21.73,1.29 24.72,0 2.98,-1.29 61.37,-138.96 62.2,-142.5 5.51,6.34 9.2,11.59 9.69,14.34 1.7,9.66 -43.71,125.2 -44.84,141.12 -1.14,15.92 14.72,74.83 14.72,74.83 0,0 0.88,4.34 -3.51,9.59l-2.31 0.21c0,0 -34.25,-74.59 -35.95,-74.13 -1.71,0.42 -19.18,5.08 -27.71,4.67 -8.52,-0.42 -54.98,-52.29 -54.98,-52.29l-5.54 118.37 -6.39 -116.79 -18.19 -33.42c0,0 -38.08,-3.96 -40.92,-6.25 -2.84,-2.25 -14.21,-20.46 -13.64,-34.08 0,0 2.85,21.75 19.04,22.58z"/>
  <path class="fil38" d="M482.17 262.73l0.6 -0.95c-0.32,0.62 -0.52,0.95 -0.6,0.95z"/>
  <path class="fil38" d="M482.32 245.11c-3.13,0 -14.19,-1.42 -14.19,-1.42l51.99 -72.83c0,0 -29.15,73.04 -36.38,88.87 0.05,-9.91 1.66,-14.62 -1.42,-14.62z"/>
  <path class="fil38" d="M406.17 215.28c-2,-1.42 -12.22,-3.71 -15.35,-3.42 -2.43,0.21 -6.42,4.08 -11.29,11.42l30.61 -61.13 -3.15 42.17c5.32,-21.42 15.08,-56.25 23.19,-60.92 -9.09,19.92 -16.74,63.58 -19.2,78.67 -1.95,-3.17 -3.93,-6.17 -4.81,-6.79z"/>
  <path class="fil31" d="M461.66 240.86l6.47 2.83c0,0 11.06,1.42 14.19,1.42 3.08,0 1.47,4.71 1.42,14.62l0 0.46c0,0 -0.34,0.54 -0.97,1.59l-0.6 0.95c-2.97,4.71 -9.92,15.21 -18.61,24.8 0,0 -3.56,-3 -7.6,-7.13 -5.59,-5.71 -12.09,-13.46 -11.44,-18.25 0,0 -0.01,-0.25 0.01,-0.67 0.11,-2.79 1.59,-13.5 17.13,-20.62z"/>
  <path class="fil31" d="M390.82 211.86c3.13,-0.29 13.35,2 15.35,3.42 0.88,0.62 2.86,3.62 4.81,6.79 2.46,4 4.85,8.25 4.85,8.25 -4.27,-0.84 -40.64,0 -40.64,0 1.51,-2.63 2.96,-4.96 4.34,-7.04 4.87,-7.34 8.86,-11.21 11.29,-11.42z"/>
  <path class="fil29" d="M387.2 1086.23c-25.01,0 -50,-5.54 -69.01,-16.58 -38.04,-22.12 -37.84,-57.96 0.44,-80.04 19.14,-11.04 44.18,-16.58 69.19,-16.58 25.01,0 49.98,5.54 69,16.58 38.03,22.08 37.83,57.92 -0.45,80.04 -19.14,11.04 -44.17,16.58 -69.17,16.58z"/>
  <path class="fil39" d="M414.04 994.82c-3.07,-9.67 17.67,-68.67 10.22,-119.5 13.06,-8.84 26.66,-9.96 29.93,-22.38 -0.51,36.09 -19.96,95.13 -13.8,135.55 -7.94,11.91 -20.91,22.66 -20.91,22.66 -4.65,-2.71 -2.35,-6.62 -5.44,-16.33z"/>
  <path class="fil2" d="M421.19 1002.57c-10,12.87 -27.41,15.83 -28.26,14.58 -0.84,-1.29 4.85,-14.58 4.85,-14.58 0,0 -17.61,3 -22.45,6.17 -4.85,3.16 -7.92,7.74 -0.75,19.58 7.17,11.79 27,14.12 35.01,8.41 8.01,-5.66 25.1,-25.7 25.73,-25.29 0.63,0.42 2.11,24.46 3.37,25.92 1.27,1.5 4.22,0.46 5.91,0 1.68,-0.42 1.68,-23.37 4.85,-31.83 3.16,-8.42 2.53,-17.5 -8.65,-22.96 -10.54,0 -12.23,10.54 -19.61,20z"/>
  <path class="fil31" d="M380.2 880.49c8.39,8.7 26.71,8.58 40.6,-2.63 1.15,-0.92 2.3,-1.75 3.46,-2.54 7.45,50.83 -13.29,109.83 -10.22,119.5 3.09,9.71 0.79,13.62 5.44,16.33 0,0 -46.52,29.29 -55.01,29.13 -2.15,-0.09 23.36,-23.25 22.92,-24.75 -2.21,-7.5 5.17,-44.13 1.2,-66.63 -3.97,-22.5 -14.57,-56.04 -20.13,-89.33 5.36,15.21 11.74,20.92 11.74,20.92z"/>
  <path class="fil33" d="M394.33 403.15c1,2.13 2.19,4 3.64,5.54 -9.37,-0.79 -22.34,1.09 -33.11,6.59 4.26,-8.63 9.35,-16.21 16.26,-22.75l0.19 10.91c4.26,-0.79 8.69,-0.62 13.02,-0.29z"/>
  <path class="fil33" d="M229.04 452.86c0.5,-0.46 1.01,-0.88 1.56,-1.29 0,0 7.5,0.41 13.7,5.08 -9.2,6.33 -12.25,24.71 -10.63,35.38l-0.42 0.33 -10.59 -3.75c0,0 -0.65,-1.63 -1.28,-4.29 -1.69,-7.13 -3.3,-21.54 7.66,-31.46z"/>
  <path class="fil34" d="M467.29 423.61c0.56,18.12 -26.77,37.67 -45.89,27.96 -19.12,-9.71 -14,-32.71 -23.42,-42.84 -1.46,-1.58 -2.65,-3.45 -3.65,-5.58 -8.45,-17.71 -2.9,-53.12 -5.01,-68.12 -2.34,-16.71 -23.36,-24.17 -23.43,-24.17 -7.46,-17.29 24.02,-57.63 70.51,-36.13 31.3,14.46 34.2,68.75 32.93,108.17 -0.62,19.13 -2.22,34.79 -2.04,40.71z"/>
  <path class="fil31" d="M374.57 1018.36c7.15,-4.17 12.78,-15.33 12.78,-15.33 0,0 9.18,1.91 9.18,2.37 0,0.42 -10.88,19.13 -10.88,19.13 0,0 -14.27,15.16 -15.15,15.75 -0.89,0.58 -8.24,-1.21 -8.24,-1.21 0,0 5.16,-16.59 12.31,-20.71z"/>
  <path class="fil30" d="M398.48 1037.24c-11.23,14.62 -32.23,12.08 -38.36,8.83 -6.08,-3.25 -12.7,-15 -12.84,-15.25 0.55,-2.88 2.47,-4.75 4.83,-6.29 4.85,-3.17 22.46,-6.17 22.46,-6.17 0,0 -5.7,13.29 -4.85,14.54 0.84,1.29 18.25,-1.66 28.26,-14.54 7.37,-9.5 9.06,-20.04 19.61,-20.04 7.59,3.75 10.31,9.12 10.28,14.83 -8.12,1 -18.57,9.96 -29.39,24.09z"/>
  <path class="fil2" d="M426.23 1021.32c-3.16,8.46 -3.16,31.42 -4.85,31.83 -1.68,0.42 -4.64,1.5 -5.9,0 -1.27,-1.46 -2.74,-25.5 -3.38,-25.91 -0.63,-0.42 -17.71,19.62 -25.72,25.29 -8.02,5.71 -27.84,3.37 -35.01,-8.42 -3.68,-6.08 -4.66,-10.25 -4.09,-13.29 0.14,0.25 6.76,12 12.84,15.25 6.13,3.25 27.13,5.79 38.36,-8.83 10.82,-14.13 21.27,-23.09 29.39,-24.09 -0.01,2.71 -0.62,5.46 -1.64,8.17z"/>
  <path class="fil7" d="M374.4 846.69c-7.76,-22.41 -23.66,-131.37 -23.96,-143.83 -0.3,-12.46 20.04,-10.67 59.55,-16 22.39,-3 42.55,-17.38 55.53,-30.75 -10.08,35.79 -28.51,73.63 -27.06,94.67 2.35,34.12 16.47,60.29 16.47,95.87 0,2.38 -0.26,4.46 -0.74,6.29 -0.29,1.09 -0.67,2.13 -1.12,3.09 -19.43,12.29 -35.47,9.41 -47.27,15.83 -12.69,6.92 -23.62,-2.75 -31.4,-25.17z"/>
  <path class="fil32" d="M424.26 875.32c-1.16,0.79 -2.31,1.62 -3.46,2.54 -13.89,11.21 -32.21,11.33 -40.6,2.67 0,0 -9.99,-3.67 -15.35,-18.88 -2.78,-7.87 -38.01,-142.75 -37.31,-200.96 19.51,10.46 61.31,15.92 82.24,11.5 19.5,-4.08 46.4,-24.08 60.24,-35.25 -1.12,6.25 -2.67,12.67 -4.5,19.17 -12.98,13.37 -33.14,27.75 -55.53,30.75 -39.51,5.33 -59.85,3.54 -59.55,16 0.3,12.46 16.2,121.42 23.96,143.83 7.78,22.42 18.71,32.09 31.4,25.17 11.8,-6.42 27.84,-3.54 47.27,-15.83 -4.58,9.62 -16.92,11.25 -28.81,19.29z"/>
  <path class="fil30" d="M471.19 636.03c-37.98,29.21 -83.52,27.75 -102.29,21.87 -20.1,-6.25 -31.77,-10.87 -31.4,-27 0.36,-16.08 27.68,-80.87 27.68,-80.87 0,0 15.44,-70.79 16.22,-86.46 0.78,-15.67 -7,-29.25 -7,-29.25 -7.19,50.41 -13.06,44.96 -27.68,50 -14.61,5.04 -68.59,10.79 -83.04,10.79 -14.45,0 -30.4,-7.62 -30.4,-7.62 -0.32,-10.76 3.02,-25.34 11.02,-30.84 0.96,-0.67 1.98,-1.21 3.08,-1.58 0,0 31.77,0.46 48.53,-3.96 16.77,-4.42 56.04,-26.04 56.04,-26.04 0.77,-0.75 1.51,-1.5 2.22,-2.21 3.06,-3.04 6.73,-5.54 10.69,-7.58 10.77,-5.5 23.74,-7.38 33.12,-6.55 9.42,10.13 4.3,33.13 23.42,42.84 19.12,9.71 46.45,-9.84 45.89,-27.96 -0.18,-5.92 1.42,-21.58 2.04,-40.71 2.32,5.79 4.17,13.5 6.64,23.21 6.18,24.25 -41.48,89.12 -37.07,118.25 4.41,29.13 39.28,55.17 40.16,105.04l-0.05 0.04c-0.38,0.34 -3.29,2.88 -7.82,6.59z"/>
  <path class="fil2" d="M346.72 484.32c14.62,-5.04 20.49,0.41 27.68,-50 0,0 7.78,13.58 7,29.25 -0.78,15.67 -16.22,86.46 -16.22,86.46 0,0 -27.32,64.79 -27.68,80.87 -0.37,16.13 11.3,20.75 31.4,27 18.77,5.88 64.31,7.34 102.29,-21.87 -0.38,0.29 -0.77,0.58 -1.17,0.91 -13.84,11.17 -40.74,31.17 -60.24,35.25 -20.93,4.42 -62.73,-1.04 -82.24,-11.5 -6,-3.21 -9.92,-6.87 -10.44,-10.91 -2.21,-17.17 12.35,-64.5 21.62,-91 7.77,-22.21 -0.9,-37.59 -9.11,-59.13 -21.06,2.5 -59.33,5.92 -67.23,5.29 -11.04,-0.87 -18.1,-1.75 -25.16,-5.29 -1.75,-0.87 -2.96,-3.75 -3.55,-7.62 -0.21,-1.42 -0.34,-2.96 -0.39,-4.59 0,0 15.95,7.67 30.4,7.67 14.45,0 68.43,-5.75 83.04,-10.79z"/>
  <polygon class="fil2" points="479.06,629.4 479.01,629.44 "/>
  <path class="fil31" d="M144.68 442.9c-3.95,-0.12 -7.13,-6.87 -8.29,-9.71 -0.54,-7.21 -0.64,-15.79 -0.23,-16.08 0.66,-0.42 8.83,-11 8.83,-11 0,0 0,9.25 0,9.92 0,0.66 11.91,6.62 12.68,5.95 0.77,-0.66 -0.11,-14.12 0,-15.87 0.11,-1.75 3.86,-2.21 6.07,-2.08 2.21,0.12 7.51,25.45 13.02,29.66 5.51,4.17 52.58,18.92 52.29,19.17 -4.62,4.17 -7,9.17 -8.1,14.04 -20.97,-9.12 -46.16,-21.08 -50.97,-22.83 -6.31,-2.29 -20.31,-0.96 -25.3,-1.17z"/>
  <path class="fil31" d="M364.5 372.82c-2.28,-6.46 -7.31,-37.92 1.39,-61.96 0.07,0 21.09,7.46 23.43,24.17 1.04,7.37 0.23,19.7 0.13,32.41 -13.75,8.17 -19.67,8.63 -24.95,5.38z"/>
  <path class="fil39" d="M221.38 484.32c0,0 -43.08,-29.25 -47.05,-31.46 -3.97,-2.21 -28.68,-4.17 -30.45,-4.63 -1.76,-0.41 -4.19,-2.87 -5.96,-5.5 -0.67,-1.04 -1.19,-5 -1.53,-9.54 1.16,2.84 4.34,9.59 8.29,9.71 4.99,0.21 18.99,-1.12 25.3,1.17 4.81,1.75 30,13.71 50.97,22.83 -1.5,6.71 -0.55,13.29 0.43,17.42z"/>
  <path class="fil39" d="M394.33 403.15c-4.33,-0.33 -8.76,-0.5 -13.02,0.29l-0.44 -25.58c0,0 -13.43,1.21 -16.07,-4.29l-0.3 -0.75c5.28,3.25 11.2,2.79 24.95,-5.38 -0.09,13.13 0.58,26.71 4.88,35.71z"/>
 </g>
</svg>
