<?xml version="1.0" encoding="utf-8"?>
<!-- Generator: Adobe Illustrator 24.1.0, SVG Export Plug-In . SVG Version: 6.00 Build 0)  -->
<svg version="1.1" id="Layer_1" xmlns="http://www.w3.org/2000/svg" xmlns:xlink="http://www.w3.org/1999/xlink" x="0px" y="0px"
	 viewBox="0 0 720 162" style="enable-background:new 0 0 720 162;" xml:space="preserve">
<style type="text/css">
	.st0{fill:#3C3C3C;}
	.st1{fill:#74C7AD;}
</style>
<g>
	<g>
		<path class="st0" d="M57.1,55.6c-14.6,0-25.3,5.8-25.3,15.4c0,10.7,11.9,13.7,26.4,15.7c22.6,3.3,44.1,9.9,44.1,34.1
			c0,24.6-21.8,33.3-44.6,33.3c-16.3,0-33.7-3.5-47.7-21.8l11.9-10.5c10.8,13.3,22.6,16.8,35.8,16.8c14.6,0,27-6.1,27-18
			c0-11.3-12.6-15.7-28.1-17.7c-21.8-3-42.2-8.5-42.2-32c0.5-21.2,22.3-30.3,42.7-30.3c15.5,0,28.6,5,39.5,16.6L86.1,67.2
			C79.7,60.1,68.7,55.7,57.1,55.6z"/>
		<path class="st0" d="M152.6,154c-22.3,0-41-13.5-41-40.3c0-26.8,18.5-41,41-41c10.7,0,19.6,3.3,27.9,11.5l-10.2,10.5
			c-5-4.4-11.5-6.6-17.6-6.6c-14,0-24.8,10.2-24.8,25.6c0,16.3,11.3,24.6,24.6,24.6c6.7,0,13.3-2,18.4-7.2l11,10.8
			C173.2,150.5,163.9,154,152.6,154z"/>
		<path class="st0" d="M268.6,74.6v77.5h-15.4l-0.8-12.6c-5,9.7-17.3,14.4-26.7,14.4c-22.6,0-40.2-14.3-40.2-40.6
			c0-25.9,18.4-40.6,40.5-40.6c11.1,0,21.8,5.6,26.4,13.7l0.5-11.8H268.6z M201.7,113.3c0,15.9,11.8,25.6,25.6,25.6
			c16.8,0,25.1-12.7,25.1-25.6c0-12.7-8.3-25.9-25.1-25.9C213.5,87.4,201.7,97.6,201.7,113.3z"/>
		<path class="st0" d="M303.1,152.1H287V42.4h16.2V152.1z"/>
		<path class="st0" d="M399.9,74.6v77.5h-15.4l-0.8-12.6c-5,9.7-17.3,14.4-26.7,14.4c-22.6,0-40.2-14.3-40.2-40.6
			c0-25.9,18.4-40.6,40.5-40.6c11.1,0,21.8,5.6,26.4,13.7l0.5-11.8H399.9z M333,113.3c0,15.9,11.8,25.6,25.6,25.6
			c16.8,0,25.1-12.7,25.1-25.6c0-12.7-8.3-25.9-25.1-25.9C344.8,87.4,333,97.6,333,113.3z"/>
		<path class="st0" d="M434.2,87.3c5-9.3,17.7-14.6,27.2-14.6c22.3,0,39.2,14.3,39.2,40.6c0,25.7-18.2,40.6-39.4,40.6
			c-9.7,0-20.9-4.2-27-14.1l-0.9,12.2H418V42.4h16.2V87.3z M435.1,113.3c0,15.2,11.1,25.6,24.8,25.6c14.1,0,24.5-9.9,24.5-25.6
			c0-15.7-10.4-25.4-24.5-25.4C446.4,87.9,435.1,98.2,435.1,113.3z"/>
		<path class="st0" d="M530.9,152.1h-16.2V42.4h16.2V152.1z"/>
		<path class="st0" d="M587,138.9c8,0,17.6-2.8,22.4-8.3l10.5,10.2c-8,8.9-21.3,13.2-33.3,13.2c-25.4,0-41.7-15.8-41.7-40.6
			c0-23.5,16.9-40.6,41.4-40.6c22.8,0,38.4,13.3,38.4,40.2c0,2.2-0.2,4.6-0.3,6.9h-62.8C563.1,131.7,572.7,138.9,587,138.9z
			 M586.3,87.1c-11.8,0-22,6.4-24.3,19h46.9C607.8,93.7,599.7,87.1,586.3,87.1z"/>
	</g>
	<polygon class="st0" points="625.4,6.2 642,22.8 674.4,22.8 674.4,55.2 691,71.8 691,6.2 	"/>
	<path class="st1" d="M667.1,95.2L602,30h65.2L667.1,95.2z M631.5,42.3l23.4,23.4l0-23.4H631.5z"/>
</g>
</svg>
