<?xml version="1.0" encoding="UTF-8"?>
<!DOCTYPE svg PUBLIC "-//W3C//DTD SVG 1.1//EN" "http://www.w3.org/Graphics/SVG/1.1/DTD/svg11.dtd">
<!-- Creator: CorelDRAW 2021.5 (Evaluation Version) -->
<svg xmlns="http://www.w3.org/2000/svg" xml:space="preserve" width="136px" height="134px" version="1.1" style="shape-rendering:geometricPrecision; text-rendering:geometricPrecision; image-rendering:optimizeQuality; fill-rule:evenodd; clip-rule:evenodd"
viewBox="0 0 136 134"
 xmlns:xlink="http://www.w3.org/1999/xlink"
 xmlns:xodm="http://www.corel.com/coreldraw/odm/2003">
 <defs>
  <style type="text/css">
   <![CDATA[
    .fil0 {fill:#434343;fill-rule:nonzero}
   ]]>
  </style>
 </defs>
 <g id="Layer_x0020_1">
  <metadata id="CorelCorpID_0Corel-Layer"/>
  <path class="fil0" d="M91.25 59.78l-2.95 0c0,5.71 -2.33,10.87 -6.08,14.62 -3.7,3.75 -8.88,6.05 -14.61,6.05 -5.68,0 -10.85,-2.3 -14.61,-6.05 -3.75,-3.75 -6.03,-8.91 -6.03,-14.62 0,-5.72 2.28,-10.87 6.03,-14.62 3.76,-3.74 8.93,-6.05 14.61,-6.06 5.73,0.01 10.91,2.32 14.61,6.06 3.75,3.75 6.08,8.9 6.08,14.62l5.89 0c0,-14.66 -11.92,-26.55 -26.58,-26.55 -14.66,0 -26.53,11.89 -26.53,26.55 0,14.66 11.87,26.55 26.53,26.55 14.66,0 26.58,-11.89 26.58,-26.55l-2.94 0z"/>
  <path class="fil0" d="M129.91 67.51l-3.09 0c0,16.39 -6.6,31.2 -17.36,41.94 -10.75,10.74 -25.56,17.37 -41.96,17.38 -16.4,-0.01 -31.21,-6.64 -41.91,-17.38 -10.76,-10.74 -17.41,-25.55 -17.41,-41.94 0,-16.39 6.65,-31.2 17.41,-41.94 10.7,-10.74 25.51,-17.37 41.91,-17.37 16.4,0 31.21,6.63 41.96,17.37 10.76,10.74 17.36,25.55 17.36,41.94l6.18 0c0,-36.17 -29.34,-65.48 -65.5,-65.49 -36.16,0.01 -65.44,29.32 -65.5,65.49 0.06,36.17 29.34,65.49 65.5,65.49 36.16,0 65.5,-29.32 65.5,-65.49l-3.09 0z"/>
  <path class="fil0" d="M33.93 120.03c0,-9.32 3.75,-17.72 9.84,-23.83 6.14,-6.1 14.56,-9.87 23.84,-9.87 9.33,0 17.75,3.77 23.84,9.87 6.09,6.11 9.89,14.51 9.89,23.83l5.88 0c0,-21.86 -17.75,-39.58 -39.61,-39.58 -21.86,0 -39.56,17.72 -39.56,39.58l5.88 0z"/>
 </g>
</svg>
